%FSLAX46Y46*%
G04 Gerber Fmt 4.6, Leading zero omitted, Abs format (unit mm)*
G04 Created by KiCad (PCBNEW (2014-10-30 BZR 5240)-product) date jeu. 06 nov. 2014 00:10:11 CET*
%MOMM*%
G01*
G04 APERTURE LIST*
%ADD10C,0.100000*%
%ADD11R,0.889000X1.397000*%
%ADD12R,1.397000X0.889000*%
%ADD13R,2.000000X0.600000*%
%ADD14R,3.560000X1.400000*%
%ADD15R,0.800100X1.000760*%
%ADD16R,0.300000X1.600000*%
%ADD17R,1.550000X0.600000*%
%ADD18R,1.399540X0.599440*%
G04 APERTURE END LIST*
D10*
D11*
X128206500Y-88265000D03*
X130111500Y-88265000D03*
D12*
X135509000Y-92392500D03*
X135509000Y-94297500D03*
X133223000Y-92392500D03*
X133223000Y-94297500D03*
X130937000Y-92392500D03*
X130937000Y-94297500D03*
X135890000Y-86677500D03*
X135890000Y-88582500D03*
X150622000Y-88836500D03*
X150622000Y-86931500D03*
D11*
X152336500Y-84836000D03*
X150431500Y-84836000D03*
D12*
X162052000Y-81724500D03*
X162052000Y-79819500D03*
D13*
X138302000Y-81915000D03*
X138302000Y-93345000D03*
X147702000Y-81915000D03*
X147702000Y-93345000D03*
X147702000Y-88265000D03*
X147702000Y-89535000D03*
X147702000Y-90805000D03*
X147702000Y-92075000D03*
X138302000Y-92075000D03*
X138302000Y-90805000D03*
X138302000Y-89535000D03*
X138302000Y-88265000D03*
X138302000Y-83185000D03*
X138302000Y-84455000D03*
X138302000Y-85725000D03*
X138302000Y-86995000D03*
X147702000Y-86995000D03*
X147702000Y-85725000D03*
X147702000Y-84455000D03*
X147702000Y-83185000D03*
D14*
X128524000Y-85915000D03*
X128524000Y-80455000D03*
D15*
X140335000Y-97619820D03*
X139382500Y-95420180D03*
X141287500Y-95420180D03*
D11*
X149542500Y-79502000D03*
X147637500Y-79502000D03*
D16*
X131994000Y-90430000D03*
X132644000Y-90430000D03*
X133294000Y-90430000D03*
X133944000Y-90430000D03*
X133944000Y-84830000D03*
X133294000Y-84830000D03*
X132644000Y-84830000D03*
X131994000Y-84830000D03*
D12*
X153924000Y-96075500D03*
X153924000Y-97980500D03*
X151130000Y-91757500D03*
X151130000Y-93662500D03*
X153670000Y-89852500D03*
X153670000Y-87947500D03*
D11*
X160464500Y-98298000D03*
X158559500Y-98298000D03*
D12*
X159258000Y-85153500D03*
X159258000Y-87058500D03*
D11*
X150050500Y-96774000D03*
X148145500Y-96774000D03*
D12*
X153670000Y-93662500D03*
X153670000Y-91757500D03*
D11*
X160464500Y-96012000D03*
X158559500Y-96012000D03*
D17*
X156812000Y-89408000D03*
X156812000Y-90678000D03*
X156812000Y-91948000D03*
X156812000Y-93218000D03*
X162212000Y-93218000D03*
X162212000Y-91948000D03*
X162212000Y-90678000D03*
X162212000Y-89408000D03*
D18*
X159131000Y-78867000D03*
X153797000Y-78867000D03*
X159131000Y-80137000D03*
X159131000Y-81407000D03*
X159131000Y-82677000D03*
X153797000Y-80137000D03*
X153797000Y-81407000D03*
X153797000Y-82677000D03*
M02*
