%FSLAX46Y46*%
G04 Gerber Fmt 4.6, Leading zero omitted, Abs format (unit mm)*
G04 Created by KiCad (PCBNEW (2014-10-30 BZR 5240)-product) date jeu. 06 nov. 2014 00:10:11 CET*
%MOMM*%
G01*
G04 APERTURE LIST*
%ADD10C,0.100000*%
%ADD11R,0.889000X1.397000*%
%ADD12R,1.397000X0.889000*%
%ADD13R,2.000000X0.600000*%
%ADD14O,1.400000X2.400000*%
%ADD15R,3.560000X1.400000*%
%ADD16O,2.400000X1.400000*%
%ADD17R,0.800100X1.000760*%
%ADD18R,0.300000X1.600000*%
%ADD19O,1.500000X2.500000*%
%ADD20R,1.550000X0.600000*%
%ADD21R,1.399540X0.599440*%
%ADD22C,0.889000*%
%ADD23C,0.254000*%
G04 APERTURE END LIST*
D10*
D11*
X128206500Y-88265000D03*
X130111500Y-88265000D03*
D12*
X135509000Y-92392500D03*
X135509000Y-94297500D03*
X133223000Y-92392500D03*
X133223000Y-94297500D03*
X130937000Y-92392500D03*
X130937000Y-94297500D03*
X135890000Y-86677500D03*
X135890000Y-88582500D03*
X150622000Y-88836500D03*
X150622000Y-86931500D03*
D11*
X152336500Y-84836000D03*
X150431500Y-84836000D03*
D12*
X162052000Y-81724500D03*
X162052000Y-79819500D03*
D13*
X138302000Y-81915000D03*
X138302000Y-93345000D03*
X147702000Y-81915000D03*
X147702000Y-93345000D03*
X147702000Y-88265000D03*
X147702000Y-89535000D03*
X147702000Y-90805000D03*
X147702000Y-92075000D03*
X138302000Y-92075000D03*
X138302000Y-90805000D03*
X138302000Y-89535000D03*
X138302000Y-88265000D03*
X138302000Y-83185000D03*
X138302000Y-84455000D03*
X138302000Y-85725000D03*
X138302000Y-86995000D03*
X147702000Y-86995000D03*
X147702000Y-85725000D03*
X147702000Y-84455000D03*
X147702000Y-83185000D03*
D14*
X146050000Y-100330000D03*
X148590000Y-100330000D03*
X151130000Y-100330000D03*
D15*
X128524000Y-85915000D03*
X128524000Y-80455000D03*
D14*
X139954000Y-76708000D03*
X142494000Y-76708000D03*
X145034000Y-76708000D03*
X147574000Y-76708000D03*
X150114000Y-76708000D03*
D16*
X127508000Y-94996000D03*
X127508000Y-92456000D03*
X165354000Y-92964000D03*
X165354000Y-90424000D03*
D14*
X142875000Y-100330000D03*
X140335000Y-100330000D03*
D17*
X140335000Y-97619820D03*
X139382500Y-95420180D03*
X141287500Y-95420180D03*
D11*
X149542500Y-79502000D03*
X147637500Y-79502000D03*
D18*
X131994000Y-90430000D03*
X132644000Y-90430000D03*
X133294000Y-90430000D03*
X133944000Y-90430000D03*
X133944000Y-84830000D03*
X133294000Y-84830000D03*
X132644000Y-84830000D03*
X131994000Y-84830000D03*
D19*
X135255000Y-98425000D03*
X132715000Y-98425000D03*
X130175000Y-98425000D03*
D12*
X153924000Y-96075500D03*
X153924000Y-97980500D03*
X151130000Y-91757500D03*
X151130000Y-93662500D03*
X153670000Y-89852500D03*
X153670000Y-87947500D03*
D11*
X160464500Y-98298000D03*
X158559500Y-98298000D03*
D12*
X159258000Y-85153500D03*
X159258000Y-87058500D03*
D11*
X150050500Y-96774000D03*
X148145500Y-96774000D03*
D12*
X153670000Y-93662500D03*
X153670000Y-91757500D03*
D11*
X160464500Y-96012000D03*
X158559500Y-96012000D03*
D20*
X156812000Y-89408000D03*
X156812000Y-90678000D03*
X156812000Y-91948000D03*
X156812000Y-93218000D03*
X162212000Y-93218000D03*
X162212000Y-91948000D03*
X162212000Y-90678000D03*
X162212000Y-89408000D03*
D21*
X159131000Y-78867000D03*
X153797000Y-78867000D03*
X159131000Y-80137000D03*
X159131000Y-81407000D03*
X159131000Y-82677000D03*
X153797000Y-80137000D03*
X153797000Y-81407000D03*
X153797000Y-82677000D03*
D22*
X135698000Y-89787000D03*
X155067000Y-85598000D03*
X164719000Y-85217000D03*
X163576000Y-77343000D03*
X137287000Y-96520000D03*
X141410300Y-92072900D03*
X154371300Y-83677300D03*
X152188300Y-89712500D03*
X140208000Y-85979000D03*
X141504100Y-93606300D03*
X158286100Y-89408000D03*
X145535800Y-89276900D03*
D23*
X130175000Y-96901000D02*
X130175000Y-98425000D01*
X128270000Y-94996000D02*
X130175000Y-96901000D01*
X127508000Y-94996000D02*
X128270000Y-94996000D01*
X138302000Y-88265000D02*
X136920700Y-88265000D01*
X136603200Y-88582500D02*
X136920700Y-88265000D01*
X135890000Y-88582500D02*
X136603200Y-88582500D01*
X135890000Y-89595000D02*
X135890000Y-88582500D01*
X135698000Y-89787000D02*
X135890000Y-89595000D01*
X161782100Y-79819500D02*
X162052000Y-79819500D01*
X154305000Y-84836000D02*
X155067000Y-85598000D01*
X152336500Y-84836000D02*
X154305000Y-84836000D01*
X164211000Y-77343000D02*
X164719000Y-77851000D01*
X164719000Y-77851000D02*
X164719000Y-85217000D01*
X150114000Y-76708000D02*
X162941000Y-76708000D01*
X162941000Y-76708000D02*
X163576000Y-77343000D01*
X163576000Y-77343000D02*
X164211000Y-77343000D01*
X135509000Y-95885000D02*
X136144000Y-96520000D01*
X136144000Y-96520000D02*
X137287000Y-96520000D01*
X135509000Y-94297500D02*
X135509000Y-95885000D01*
X133944000Y-91081500D02*
X133944000Y-90430000D01*
X135255000Y-92392500D02*
X133944000Y-91081500D01*
X135509000Y-92392500D02*
X135255000Y-92392500D01*
X149542500Y-79502000D02*
X149542500Y-79692500D01*
X149542500Y-79692500D02*
X148001400Y-81233600D01*
X148001400Y-81233600D02*
X147604400Y-81233600D01*
X131994000Y-91589500D02*
X131994000Y-91484000D01*
X131191000Y-92392500D02*
X131994000Y-91589500D01*
X130937000Y-92392500D02*
X131191000Y-92392500D01*
X131994000Y-90430000D02*
X131994000Y-91484000D01*
X132902000Y-92392500D02*
X133223000Y-92392500D01*
X131994000Y-91484000D02*
X132902000Y-92392500D01*
X161734000Y-81407000D02*
X162052000Y-81724500D01*
X159131000Y-81407000D02*
X161734000Y-81407000D01*
X142875000Y-100330000D02*
X144462500Y-100330000D01*
X144462500Y-100330000D02*
X146050000Y-100330000D01*
X161183000Y-91948000D02*
X162212000Y-91948000D01*
X159258000Y-90023000D02*
X161183000Y-91948000D01*
X159258000Y-87947400D02*
X159258000Y-90023000D01*
X155197400Y-88836500D02*
X150622000Y-88836500D01*
X156086500Y-87947400D02*
X155197400Y-88836500D01*
X159258000Y-87947400D02*
X156086500Y-87947400D01*
X133944000Y-85480000D02*
X133944000Y-84830000D01*
X134230900Y-85766800D02*
X133944000Y-85480000D01*
X131994000Y-84830000D02*
X131994000Y-86820700D01*
X131994000Y-86820700D02*
X131994000Y-90430000D01*
X135142000Y-86677500D02*
X134230900Y-85766800D01*
X135890000Y-86677500D02*
X135142000Y-86677500D01*
X136208000Y-86995000D02*
X135890000Y-86677500D01*
X138302000Y-86995000D02*
X136208000Y-86995000D01*
X153797000Y-81407000D02*
X154878100Y-81407000D01*
X158049900Y-81407000D02*
X154878100Y-81407000D01*
X158590500Y-81407000D02*
X158590500Y-82677000D01*
X159131000Y-82677000D02*
X158590500Y-82677000D01*
X159131000Y-81407000D02*
X158590500Y-81407000D01*
X158590500Y-81407000D02*
X158049900Y-81407000D01*
X159258000Y-87058500D02*
X159258000Y-87502900D01*
X159258000Y-87502900D02*
X159258000Y-87947400D01*
X158168300Y-83099200D02*
X158590500Y-82677000D01*
X158168300Y-86413200D02*
X158168300Y-83099200D01*
X159258000Y-87502900D02*
X158168300Y-86413200D01*
X150050000Y-88265000D02*
X150622000Y-88836500D01*
X147702000Y-88265000D02*
X150050000Y-88265000D01*
X145268500Y-88265000D02*
X143908000Y-86904500D01*
X147702000Y-88265000D02*
X145268500Y-88265000D01*
X143908000Y-83826300D02*
X143908000Y-86904500D01*
X146500700Y-81233600D02*
X143908000Y-83826300D01*
X147604400Y-81233600D02*
X146500700Y-81233600D01*
X139773800Y-86904500D02*
X139683300Y-86995000D01*
X143908000Y-86904500D02*
X139773800Y-86904500D01*
X138302000Y-86995000D02*
X139683300Y-86995000D01*
X142875000Y-98552000D02*
X140506000Y-96183000D01*
X140506000Y-96183000D02*
X140506000Y-96078400D01*
X136311400Y-93218300D02*
X133223000Y-93218300D01*
X137631500Y-94538400D02*
X136311400Y-93218300D01*
X140024800Y-94538400D02*
X137631500Y-94538400D01*
X140506000Y-95019600D02*
X140024800Y-94538400D01*
X140506000Y-96078400D02*
X140506000Y-95019600D01*
X133223000Y-93218300D02*
X133223000Y-92392500D01*
X142875000Y-100330000D02*
X142875000Y-98552000D01*
X133944000Y-85766000D02*
X133350000Y-86360000D01*
X133350000Y-86360000D02*
X132461000Y-86360000D01*
X132461000Y-86360000D02*
X131994000Y-85893000D01*
X131994000Y-85893000D02*
X131994000Y-84830000D01*
X133944000Y-84830000D02*
X133944000Y-85766000D01*
X155448000Y-90678000D02*
X156812000Y-90678000D01*
X154622000Y-89852500D02*
X155448000Y-90678000D01*
X153670000Y-89852500D02*
X154622000Y-89852500D01*
X156812000Y-91948000D02*
X156812000Y-90678000D01*
X150432000Y-84836000D02*
X150431500Y-84836000D01*
X148402000Y-85725000D02*
X147702000Y-85725000D01*
X149291000Y-84836000D02*
X148402000Y-85725000D01*
X150431500Y-84836000D02*
X149291000Y-84836000D01*
X142494000Y-79104300D02*
X139683300Y-81915000D01*
X142494000Y-78289300D02*
X142494000Y-79104300D01*
X142494000Y-76708000D02*
X142494000Y-78289300D01*
X138302000Y-81915000D02*
X139683300Y-81915000D01*
X147637500Y-79502000D02*
X147637700Y-79501800D01*
X147574000Y-79438500D02*
X147637700Y-79501800D01*
X147574000Y-76708000D02*
X147574000Y-79438500D01*
X147637700Y-79501800D02*
X147638000Y-79502000D01*
X140138200Y-93345000D02*
X138302000Y-93345000D01*
X141410300Y-92072900D02*
X140138200Y-93345000D01*
X148948900Y-81915000D02*
X147702000Y-81915000D01*
X152678000Y-78185900D02*
X148948900Y-81915000D01*
X157368800Y-78185900D02*
X152678000Y-78185900D01*
X158049900Y-78867000D02*
X157368800Y-78185900D01*
X159131000Y-78867000D02*
X158049900Y-78867000D01*
X148590000Y-98679000D02*
X149098000Y-98171000D01*
X149098000Y-98171000D02*
X149098000Y-95631000D01*
X149098000Y-95631000D02*
X147702000Y-94235000D01*
X147702000Y-94235000D02*
X147702000Y-93345000D01*
X148590000Y-100330000D02*
X148590000Y-98679000D01*
X149260800Y-89712500D02*
X149083300Y-89535000D01*
X152188300Y-89712500D02*
X149260800Y-89712500D01*
X147702000Y-89535000D02*
X149083300Y-89535000D01*
X153797000Y-82677000D02*
X154878100Y-82677000D01*
X154878100Y-83170500D02*
X154371300Y-83677300D01*
X154878100Y-82677000D02*
X154878100Y-83170500D01*
X148146000Y-96774000D02*
X148145500Y-96774000D01*
X141478000Y-90805000D02*
X138302000Y-90805000D01*
X147447000Y-96774000D02*
X141478000Y-90805000D01*
X148145500Y-96774000D02*
X147447000Y-96774000D01*
X136920700Y-81322600D02*
X136920700Y-83185000D01*
X139954000Y-78289300D02*
X136920700Y-81322600D01*
X139954000Y-76708000D02*
X139954000Y-78289300D01*
X138302000Y-83185000D02*
X136920700Y-83185000D01*
X145034000Y-79104300D02*
X139683300Y-84455000D01*
X145034000Y-76708000D02*
X145034000Y-79104300D01*
X138302000Y-84455000D02*
X139683300Y-84455000D01*
X139954000Y-85725000D02*
X138302000Y-85725000D01*
X139954000Y-85725000D02*
X140208000Y-85979000D01*
X141287500Y-95420200D02*
X141287500Y-94538500D01*
X141287500Y-94538500D02*
X141504100Y-94321900D01*
X141504100Y-94321900D02*
X141504100Y-93606300D01*
X148397900Y-84455000D02*
X147702000Y-84455000D01*
X152715900Y-80137000D02*
X148397900Y-84455000D01*
X153797000Y-80137000D02*
X152715900Y-80137000D01*
X148397900Y-83185000D02*
X147702000Y-83185000D01*
X152715900Y-78867000D02*
X148397900Y-83185000D01*
X153797000Y-78867000D02*
X152715900Y-78867000D01*
X132644000Y-82541000D02*
X132644000Y-84830000D01*
X130558000Y-80455000D02*
X132644000Y-82541000D01*
X128524000Y-80455000D02*
X130558000Y-80455000D01*
X140335000Y-97619800D02*
X140335000Y-100330000D01*
X128206000Y-86232500D02*
X128524000Y-85915000D01*
X128206000Y-87725000D02*
X128206000Y-86232500D01*
X128206500Y-87725500D02*
X128206500Y-88265000D01*
X128206000Y-87725000D02*
X128206500Y-87725500D01*
X128333500Y-89217500D02*
X129159000Y-90043000D01*
X129159000Y-94361000D02*
X129159000Y-94369000D01*
X129159000Y-90043000D02*
X129159000Y-94361000D01*
X128206000Y-87725000D02*
X128206000Y-89217500D01*
X128206000Y-89217500D02*
X128333500Y-89217500D01*
X129159000Y-94361000D02*
X131826000Y-97028000D01*
X132715000Y-97917000D02*
X131826000Y-97028000D01*
X132715000Y-98425000D02*
X132715000Y-97917000D01*
X152273000Y-96774000D02*
X150050500Y-96774000D01*
X152972000Y-96075500D02*
X152273000Y-96774000D01*
X153924000Y-96075500D02*
X152972000Y-96075500D01*
X151130000Y-94361000D02*
X151130000Y-93662500D01*
X150050000Y-95440500D02*
X151130000Y-94361000D01*
X150050000Y-96774000D02*
X150050000Y-95440500D01*
X150050500Y-96774000D02*
X150050000Y-96774000D01*
X151130000Y-91757500D02*
X153670000Y-91757500D01*
X165100000Y-93218000D02*
X165354000Y-92964000D01*
X162212000Y-93218000D02*
X165100000Y-93218000D01*
X161163000Y-96012000D02*
X160464500Y-96012000D01*
X162212000Y-94963000D02*
X161163000Y-96012000D01*
X162212000Y-93218000D02*
X162212000Y-94963000D01*
X160464000Y-96012000D02*
X160464000Y-97155000D01*
X160464500Y-96012000D02*
X160464000Y-96012000D01*
X160464000Y-97155000D02*
X160464000Y-98298000D01*
X160464500Y-97155500D02*
X160464500Y-98298000D01*
X160464000Y-97155000D02*
X160464500Y-97155500D01*
X155004000Y-93662500D02*
X153670000Y-93662500D01*
X155448000Y-93218000D02*
X155004000Y-93662500D01*
X156812000Y-93218000D02*
X155448000Y-93218000D01*
X156812000Y-94963000D02*
X156812000Y-93218000D01*
X157861000Y-96012000D02*
X156812000Y-94963000D01*
X158559500Y-96012000D02*
X157861000Y-96012000D01*
X158560000Y-96012000D02*
X158560000Y-97155000D01*
X158559500Y-96012000D02*
X158560000Y-96012000D01*
X158560000Y-97155000D02*
X158560000Y-98298000D01*
X158559500Y-97155500D02*
X158559500Y-98298000D01*
X158560000Y-97155000D02*
X158559500Y-97155500D01*
X139941400Y-89276900D02*
X139683300Y-89535000D01*
X145535800Y-89276900D02*
X139941400Y-89276900D01*
X138302000Y-89535000D02*
X139683300Y-89535000D01*
X156812000Y-89408000D02*
X157968300Y-89408000D01*
X157968300Y-89408000D02*
X158286100Y-89408000D01*
X162687000Y-89408000D02*
X162212000Y-89408000D01*
X163703000Y-90424000D02*
X162687000Y-89408000D01*
X165354000Y-90424000D02*
X163703000Y-90424000D01*
G36*
X137115160Y-92709999D02*
X137086180Y-92722004D01*
X136979004Y-92829181D01*
X136921000Y-92969215D01*
X136921000Y-93109480D01*
X136670610Y-92859090D01*
X136588500Y-92804225D01*
X136588500Y-92761214D01*
X136588500Y-91872214D01*
X136530496Y-91732180D01*
X136423319Y-91625004D01*
X136283285Y-91567000D01*
X136131714Y-91567000D01*
X135763000Y-91567000D01*
X135763000Y-89503250D01*
X135763000Y-88709500D01*
X134715250Y-88709500D01*
X134556500Y-88868250D01*
X134556500Y-89153309D01*
X134653173Y-89386698D01*
X134831801Y-89565327D01*
X135065190Y-89662000D01*
X135317809Y-89662000D01*
X135604250Y-89662000D01*
X135763000Y-89503250D01*
X135763000Y-91567000D01*
X135147920Y-91567000D01*
X134475000Y-90894080D01*
X134475000Y-89554214D01*
X134416996Y-89414180D01*
X134309819Y-89307004D01*
X134169785Y-89249000D01*
X134018214Y-89249000D01*
X133718214Y-89249000D01*
X133618999Y-89290096D01*
X133519785Y-89249000D01*
X133368214Y-89249000D01*
X133068214Y-89249000D01*
X132968999Y-89290096D01*
X132869785Y-89249000D01*
X132718214Y-89249000D01*
X132502000Y-89249000D01*
X132502000Y-86868000D01*
X133350000Y-86868000D01*
X133544403Y-86829331D01*
X133709210Y-86719210D01*
X134087097Y-86341322D01*
X134782790Y-87036710D01*
X134782869Y-87036789D01*
X134810500Y-87055242D01*
X134810500Y-87197786D01*
X134868504Y-87337820D01*
X134975681Y-87444996D01*
X135115715Y-87503000D01*
X135065190Y-87503000D01*
X134831801Y-87599673D01*
X134653173Y-87778302D01*
X134556500Y-88011691D01*
X134556500Y-88296750D01*
X134715250Y-88455500D01*
X135763000Y-88455500D01*
X135763000Y-87661750D01*
X135604250Y-87503000D01*
X136175750Y-87503000D01*
X136017000Y-87661750D01*
X136017000Y-88455500D01*
X136037000Y-88455500D01*
X136037000Y-88709500D01*
X136017000Y-88709500D01*
X136017000Y-89503250D01*
X136175750Y-89662000D01*
X136462191Y-89662000D01*
X136714810Y-89662000D01*
X136921000Y-89576593D01*
X136921000Y-89910786D01*
X136979004Y-90050820D01*
X137086181Y-90157996D01*
X137115160Y-90169999D01*
X137086180Y-90182004D01*
X136979004Y-90289181D01*
X136921000Y-90429215D01*
X136921000Y-90580786D01*
X136921000Y-91180786D01*
X136979004Y-91320820D01*
X137086181Y-91427996D01*
X137115160Y-91439999D01*
X137086180Y-91452004D01*
X136979004Y-91559181D01*
X136921000Y-91699215D01*
X136921000Y-91850786D01*
X136921000Y-92450786D01*
X136979004Y-92590820D01*
X137086181Y-92697996D01*
X137115160Y-92709999D01*
X137115160Y-92709999D01*
G37*
X137115160Y-92709999D02*
X137086180Y-92722004D01*
X136979004Y-92829181D01*
X136921000Y-92969215D01*
X136921000Y-93109480D01*
X136670610Y-92859090D01*
X136588500Y-92804225D01*
X136588500Y-92761214D01*
X136588500Y-91872214D01*
X136530496Y-91732180D01*
X136423319Y-91625004D01*
X136283285Y-91567000D01*
X136131714Y-91567000D01*
X135763000Y-91567000D01*
X135763000Y-89503250D01*
X135763000Y-88709500D01*
X134715250Y-88709500D01*
X134556500Y-88868250D01*
X134556500Y-89153309D01*
X134653173Y-89386698D01*
X134831801Y-89565327D01*
X135065190Y-89662000D01*
X135317809Y-89662000D01*
X135604250Y-89662000D01*
X135763000Y-89503250D01*
X135763000Y-91567000D01*
X135147920Y-91567000D01*
X134475000Y-90894080D01*
X134475000Y-89554214D01*
X134416996Y-89414180D01*
X134309819Y-89307004D01*
X134169785Y-89249000D01*
X134018214Y-89249000D01*
X133718214Y-89249000D01*
X133618999Y-89290096D01*
X133519785Y-89249000D01*
X133368214Y-89249000D01*
X133068214Y-89249000D01*
X132968999Y-89290096D01*
X132869785Y-89249000D01*
X132718214Y-89249000D01*
X132502000Y-89249000D01*
X132502000Y-86868000D01*
X133350000Y-86868000D01*
X133544403Y-86829331D01*
X133709210Y-86719210D01*
X134087097Y-86341322D01*
X134782790Y-87036710D01*
X134782869Y-87036789D01*
X134810500Y-87055242D01*
X134810500Y-87197786D01*
X134868504Y-87337820D01*
X134975681Y-87444996D01*
X135115715Y-87503000D01*
X135065190Y-87503000D01*
X134831801Y-87599673D01*
X134653173Y-87778302D01*
X134556500Y-88011691D01*
X134556500Y-88296750D01*
X134715250Y-88455500D01*
X135763000Y-88455500D01*
X135763000Y-87661750D01*
X135604250Y-87503000D01*
X136175750Y-87503000D01*
X136017000Y-87661750D01*
X136017000Y-88455500D01*
X136037000Y-88455500D01*
X136037000Y-88709500D01*
X136017000Y-88709500D01*
X136017000Y-89503250D01*
X136175750Y-89662000D01*
X136462191Y-89662000D01*
X136714810Y-89662000D01*
X136921000Y-89576593D01*
X136921000Y-89910786D01*
X136979004Y-90050820D01*
X137086181Y-90157996D01*
X137115160Y-90169999D01*
X137086180Y-90182004D01*
X136979004Y-90289181D01*
X136921000Y-90429215D01*
X136921000Y-90580786D01*
X136921000Y-91180786D01*
X136979004Y-91320820D01*
X137086181Y-91427996D01*
X137115160Y-91439999D01*
X137086180Y-91452004D01*
X136979004Y-91559181D01*
X136921000Y-91699215D01*
X136921000Y-91850786D01*
X136921000Y-92450786D01*
X136979004Y-92590820D01*
X137086181Y-92697996D01*
X137115160Y-92709999D01*
G36*
X139388580Y-78136299D02*
X136561490Y-80963390D01*
X136451369Y-81128197D01*
X136412700Y-81322600D01*
X136412700Y-83185000D01*
X136451369Y-83379403D01*
X136561490Y-83544210D01*
X136726297Y-83654331D01*
X136920700Y-83693000D01*
X136975764Y-83693000D01*
X136979004Y-83700820D01*
X137086181Y-83807996D01*
X137115160Y-83819999D01*
X137086180Y-83832004D01*
X136979004Y-83939181D01*
X136921000Y-84079215D01*
X136921000Y-84230786D01*
X136921000Y-84830786D01*
X136979004Y-84970820D01*
X137086181Y-85077996D01*
X137115160Y-85089999D01*
X137086180Y-85102004D01*
X136979004Y-85209181D01*
X136921000Y-85349215D01*
X136921000Y-85500786D01*
X136921000Y-86040124D01*
X136911496Y-86017180D01*
X136804319Y-85910004D01*
X136664285Y-85852000D01*
X136512714Y-85852000D01*
X135115714Y-85852000D01*
X135058446Y-85875720D01*
X134590049Y-85407529D01*
X134590048Y-85407527D01*
X134590031Y-85407511D01*
X134475000Y-85292519D01*
X134475000Y-83954214D01*
X134416996Y-83814180D01*
X134309819Y-83707004D01*
X134169785Y-83649000D01*
X134018214Y-83649000D01*
X133961025Y-83649000D01*
X133803698Y-83491673D01*
X133570309Y-83395000D01*
X133527750Y-83395000D01*
X133369000Y-83553750D01*
X133369000Y-84703000D01*
X133413000Y-84703000D01*
X133413000Y-84957000D01*
X133369000Y-84957000D01*
X133369000Y-84977000D01*
X133219000Y-84977000D01*
X133219000Y-84957000D01*
X133175000Y-84957000D01*
X133175000Y-84703000D01*
X133219000Y-84703000D01*
X133219000Y-83553750D01*
X133152000Y-83486750D01*
X133152000Y-82541000D01*
X133113331Y-82346597D01*
X133113330Y-82346596D01*
X133076790Y-82291910D01*
X133003210Y-82181790D01*
X133003210Y-82181789D01*
X130917210Y-80095790D01*
X130752403Y-79985669D01*
X130685000Y-79972261D01*
X130685000Y-79679214D01*
X130626996Y-79539180D01*
X130519819Y-79432004D01*
X130379785Y-79374000D01*
X130228214Y-79374000D01*
X126668214Y-79374000D01*
X126528180Y-79432004D01*
X126421004Y-79539181D01*
X126363000Y-79679215D01*
X126363000Y-79830786D01*
X126363000Y-81230786D01*
X126421004Y-81370820D01*
X126528181Y-81477996D01*
X126668215Y-81536000D01*
X126819786Y-81536000D01*
X130379786Y-81536000D01*
X130519820Y-81477996D01*
X130626996Y-81370819D01*
X130664604Y-81280024D01*
X132136000Y-82751420D01*
X132136000Y-83649000D01*
X132068214Y-83649000D01*
X131768214Y-83649000D01*
X131628180Y-83707004D01*
X131521004Y-83814181D01*
X131463000Y-83954215D01*
X131463000Y-84105786D01*
X131463000Y-85705786D01*
X131486000Y-85761312D01*
X131486000Y-85893000D01*
X131486000Y-86820700D01*
X131486000Y-89498688D01*
X131463000Y-89554215D01*
X131463000Y-89705786D01*
X131463000Y-91305786D01*
X131486000Y-91361312D01*
X131486000Y-91379079D01*
X131298079Y-91567000D01*
X131191000Y-91567000D01*
X131191000Y-89089810D01*
X131191000Y-88837191D01*
X131191000Y-88550750D01*
X131032250Y-88392000D01*
X130238500Y-88392000D01*
X130238500Y-89439750D01*
X130397250Y-89598500D01*
X130682309Y-89598500D01*
X130915698Y-89501827D01*
X131094327Y-89323199D01*
X131191000Y-89089810D01*
X131191000Y-91567000D01*
X130162714Y-91567000D01*
X130022680Y-91625004D01*
X129915504Y-91732181D01*
X129857500Y-91872215D01*
X129857500Y-92023786D01*
X129857500Y-92912786D01*
X129915504Y-93052820D01*
X130022681Y-93159996D01*
X130162715Y-93218000D01*
X130112190Y-93218000D01*
X129878801Y-93314673D01*
X129700173Y-93493302D01*
X129667000Y-93573388D01*
X129667000Y-90043000D01*
X129634746Y-89880849D01*
X129628331Y-89848597D01*
X129628331Y-89848596D01*
X129518210Y-89683790D01*
X129356714Y-89522294D01*
X129540691Y-89598500D01*
X129825750Y-89598500D01*
X129984500Y-89439750D01*
X129984500Y-88392000D01*
X129190750Y-88392000D01*
X129032000Y-88550750D01*
X129032000Y-87979250D01*
X129190750Y-88138000D01*
X129984500Y-88138000D01*
X129984500Y-88118000D01*
X130238500Y-88118000D01*
X130238500Y-88138000D01*
X131032250Y-88138000D01*
X131191000Y-87979250D01*
X131191000Y-87692809D01*
X131191000Y-87440190D01*
X131094327Y-87206801D01*
X130915698Y-87028173D01*
X130682309Y-86931500D01*
X130526315Y-86931500D01*
X130626996Y-86830819D01*
X130685000Y-86690785D01*
X130685000Y-86539214D01*
X130685000Y-85139214D01*
X130626996Y-84999180D01*
X130519819Y-84892004D01*
X130379785Y-84834000D01*
X130228214Y-84834000D01*
X126668214Y-84834000D01*
X126528180Y-84892004D01*
X126421004Y-84999181D01*
X126363000Y-85139215D01*
X126363000Y-85290786D01*
X126363000Y-86690786D01*
X126421004Y-86830820D01*
X126528181Y-86937996D01*
X126668215Y-86996000D01*
X126819786Y-86996000D01*
X127698000Y-86996000D01*
X127698000Y-87185500D01*
X127686214Y-87185500D01*
X127546180Y-87243504D01*
X127439004Y-87350681D01*
X127381000Y-87490715D01*
X127381000Y-87642286D01*
X127381000Y-89039286D01*
X127439004Y-89179320D01*
X127546181Y-89286496D01*
X127686215Y-89344500D01*
X127723261Y-89344500D01*
X127736669Y-89411903D01*
X127846790Y-89576710D01*
X128011597Y-89686831D01*
X128102490Y-89704910D01*
X128651000Y-90253420D01*
X128651000Y-91283273D01*
X128636215Y-91271222D01*
X128135000Y-91121000D01*
X127635000Y-91121000D01*
X127635000Y-92329000D01*
X127655000Y-92329000D01*
X127655000Y-92583000D01*
X127635000Y-92583000D01*
X127635000Y-93791000D01*
X128135000Y-93791000D01*
X128636215Y-93640778D01*
X128651000Y-93628726D01*
X128651000Y-94129816D01*
X128452655Y-93997286D01*
X128038974Y-93915000D01*
X126977026Y-93915000D01*
X126563345Y-93997286D01*
X126212644Y-94231618D01*
X126161000Y-94308908D01*
X126161000Y-93462441D01*
X126379785Y-93640778D01*
X126881000Y-93791000D01*
X127381000Y-93791000D01*
X127381000Y-92583000D01*
X127361000Y-92583000D01*
X127361000Y-92329000D01*
X127381000Y-92329000D01*
X127381000Y-91121000D01*
X126881000Y-91121000D01*
X126379785Y-91271222D01*
X126161000Y-91449558D01*
X126161000Y-75361000D01*
X139266908Y-75361000D01*
X139189618Y-75412644D01*
X138955286Y-75763345D01*
X138873000Y-76177026D01*
X138873000Y-77238974D01*
X138955286Y-77652655D01*
X139189618Y-78003356D01*
X139388580Y-78136299D01*
X139388580Y-78136299D01*
G37*
X139388580Y-78136299D02*
X136561490Y-80963390D01*
X136451369Y-81128197D01*
X136412700Y-81322600D01*
X136412700Y-83185000D01*
X136451369Y-83379403D01*
X136561490Y-83544210D01*
X136726297Y-83654331D01*
X136920700Y-83693000D01*
X136975764Y-83693000D01*
X136979004Y-83700820D01*
X137086181Y-83807996D01*
X137115160Y-83819999D01*
X137086180Y-83832004D01*
X136979004Y-83939181D01*
X136921000Y-84079215D01*
X136921000Y-84230786D01*
X136921000Y-84830786D01*
X136979004Y-84970820D01*
X137086181Y-85077996D01*
X137115160Y-85089999D01*
X137086180Y-85102004D01*
X136979004Y-85209181D01*
X136921000Y-85349215D01*
X136921000Y-85500786D01*
X136921000Y-86040124D01*
X136911496Y-86017180D01*
X136804319Y-85910004D01*
X136664285Y-85852000D01*
X136512714Y-85852000D01*
X135115714Y-85852000D01*
X135058446Y-85875720D01*
X134590049Y-85407529D01*
X134590048Y-85407527D01*
X134590031Y-85407511D01*
X134475000Y-85292519D01*
X134475000Y-83954214D01*
X134416996Y-83814180D01*
X134309819Y-83707004D01*
X134169785Y-83649000D01*
X134018214Y-83649000D01*
X133961025Y-83649000D01*
X133803698Y-83491673D01*
X133570309Y-83395000D01*
X133527750Y-83395000D01*
X133369000Y-83553750D01*
X133369000Y-84703000D01*
X133413000Y-84703000D01*
X133413000Y-84957000D01*
X133369000Y-84957000D01*
X133369000Y-84977000D01*
X133219000Y-84977000D01*
X133219000Y-84957000D01*
X133175000Y-84957000D01*
X133175000Y-84703000D01*
X133219000Y-84703000D01*
X133219000Y-83553750D01*
X133152000Y-83486750D01*
X133152000Y-82541000D01*
X133113331Y-82346597D01*
X133113330Y-82346596D01*
X133076790Y-82291910D01*
X133003210Y-82181790D01*
X133003210Y-82181789D01*
X130917210Y-80095790D01*
X130752403Y-79985669D01*
X130685000Y-79972261D01*
X130685000Y-79679214D01*
X130626996Y-79539180D01*
X130519819Y-79432004D01*
X130379785Y-79374000D01*
X130228214Y-79374000D01*
X126668214Y-79374000D01*
X126528180Y-79432004D01*
X126421004Y-79539181D01*
X126363000Y-79679215D01*
X126363000Y-79830786D01*
X126363000Y-81230786D01*
X126421004Y-81370820D01*
X126528181Y-81477996D01*
X126668215Y-81536000D01*
X126819786Y-81536000D01*
X130379786Y-81536000D01*
X130519820Y-81477996D01*
X130626996Y-81370819D01*
X130664604Y-81280024D01*
X132136000Y-82751420D01*
X132136000Y-83649000D01*
X132068214Y-83649000D01*
X131768214Y-83649000D01*
X131628180Y-83707004D01*
X131521004Y-83814181D01*
X131463000Y-83954215D01*
X131463000Y-84105786D01*
X131463000Y-85705786D01*
X131486000Y-85761312D01*
X131486000Y-85893000D01*
X131486000Y-86820700D01*
X131486000Y-89498688D01*
X131463000Y-89554215D01*
X131463000Y-89705786D01*
X131463000Y-91305786D01*
X131486000Y-91361312D01*
X131486000Y-91379079D01*
X131298079Y-91567000D01*
X131191000Y-91567000D01*
X131191000Y-89089810D01*
X131191000Y-88837191D01*
X131191000Y-88550750D01*
X131032250Y-88392000D01*
X130238500Y-88392000D01*
X130238500Y-89439750D01*
X130397250Y-89598500D01*
X130682309Y-89598500D01*
X130915698Y-89501827D01*
X131094327Y-89323199D01*
X131191000Y-89089810D01*
X131191000Y-91567000D01*
X130162714Y-91567000D01*
X130022680Y-91625004D01*
X129915504Y-91732181D01*
X129857500Y-91872215D01*
X129857500Y-92023786D01*
X129857500Y-92912786D01*
X129915504Y-93052820D01*
X130022681Y-93159996D01*
X130162715Y-93218000D01*
X130112190Y-93218000D01*
X129878801Y-93314673D01*
X129700173Y-93493302D01*
X129667000Y-93573388D01*
X129667000Y-90043000D01*
X129634746Y-89880849D01*
X129628331Y-89848597D01*
X129628331Y-89848596D01*
X129518210Y-89683790D01*
X129356714Y-89522294D01*
X129540691Y-89598500D01*
X129825750Y-89598500D01*
X129984500Y-89439750D01*
X129984500Y-88392000D01*
X129190750Y-88392000D01*
X129032000Y-88550750D01*
X129032000Y-87979250D01*
X129190750Y-88138000D01*
X129984500Y-88138000D01*
X129984500Y-88118000D01*
X130238500Y-88118000D01*
X130238500Y-88138000D01*
X131032250Y-88138000D01*
X131191000Y-87979250D01*
X131191000Y-87692809D01*
X131191000Y-87440190D01*
X131094327Y-87206801D01*
X130915698Y-87028173D01*
X130682309Y-86931500D01*
X130526315Y-86931500D01*
X130626996Y-86830819D01*
X130685000Y-86690785D01*
X130685000Y-86539214D01*
X130685000Y-85139214D01*
X130626996Y-84999180D01*
X130519819Y-84892004D01*
X130379785Y-84834000D01*
X130228214Y-84834000D01*
X126668214Y-84834000D01*
X126528180Y-84892004D01*
X126421004Y-84999181D01*
X126363000Y-85139215D01*
X126363000Y-85290786D01*
X126363000Y-86690786D01*
X126421004Y-86830820D01*
X126528181Y-86937996D01*
X126668215Y-86996000D01*
X126819786Y-86996000D01*
X127698000Y-86996000D01*
X127698000Y-87185500D01*
X127686214Y-87185500D01*
X127546180Y-87243504D01*
X127439004Y-87350681D01*
X127381000Y-87490715D01*
X127381000Y-87642286D01*
X127381000Y-89039286D01*
X127439004Y-89179320D01*
X127546181Y-89286496D01*
X127686215Y-89344500D01*
X127723261Y-89344500D01*
X127736669Y-89411903D01*
X127846790Y-89576710D01*
X128011597Y-89686831D01*
X128102490Y-89704910D01*
X128651000Y-90253420D01*
X128651000Y-91283273D01*
X128636215Y-91271222D01*
X128135000Y-91121000D01*
X127635000Y-91121000D01*
X127635000Y-92329000D01*
X127655000Y-92329000D01*
X127655000Y-92583000D01*
X127635000Y-92583000D01*
X127635000Y-93791000D01*
X128135000Y-93791000D01*
X128636215Y-93640778D01*
X128651000Y-93628726D01*
X128651000Y-94129816D01*
X128452655Y-93997286D01*
X128038974Y-93915000D01*
X126977026Y-93915000D01*
X126563345Y-93997286D01*
X126212644Y-94231618D01*
X126161000Y-94308908D01*
X126161000Y-93462441D01*
X126379785Y-93640778D01*
X126881000Y-93791000D01*
X127381000Y-93791000D01*
X127381000Y-92583000D01*
X127361000Y-92583000D01*
X127361000Y-92329000D01*
X127381000Y-92329000D01*
X127381000Y-91121000D01*
X126881000Y-91121000D01*
X126379785Y-91271222D01*
X126161000Y-91449558D01*
X126161000Y-75361000D01*
X139266908Y-75361000D01*
X139189618Y-75412644D01*
X138955286Y-75763345D01*
X138873000Y-76177026D01*
X138873000Y-77238974D01*
X138955286Y-77652655D01*
X139189618Y-78003356D01*
X139388580Y-78136299D01*
G36*
X140343020Y-96738440D02*
X139859164Y-96738440D01*
X139719130Y-96796444D01*
X139611954Y-96903621D01*
X139553950Y-97043655D01*
X139553950Y-97195226D01*
X139553950Y-98195986D01*
X139611954Y-98336020D01*
X139719131Y-98443196D01*
X139827000Y-98487876D01*
X139827000Y-98863334D01*
X139570618Y-99034644D01*
X139336286Y-99385345D01*
X139255500Y-99791484D01*
X139255500Y-96396810D01*
X139255500Y-95547180D01*
X138506200Y-95547180D01*
X138347450Y-95705930D01*
X138347450Y-95794251D01*
X138347450Y-96046870D01*
X138444123Y-96280259D01*
X138622752Y-96458887D01*
X138856141Y-96555560D01*
X139096750Y-96555560D01*
X139255500Y-96396810D01*
X139255500Y-99791484D01*
X139254000Y-99799026D01*
X139254000Y-100860974D01*
X139336286Y-101274655D01*
X139570618Y-101625356D01*
X139837976Y-101804000D01*
X136842500Y-101804000D01*
X136386000Y-101804000D01*
X136386000Y-98956953D01*
X136386000Y-97893047D01*
X136299908Y-97460232D01*
X136054738Y-97093309D01*
X135687815Y-96848139D01*
X135382000Y-96787308D01*
X135382000Y-95218250D01*
X135382000Y-94424500D01*
X134397750Y-94424500D01*
X134334250Y-94424500D01*
X133350000Y-94424500D01*
X133350000Y-95218250D01*
X133508750Y-95377000D01*
X133795191Y-95377000D01*
X134047810Y-95377000D01*
X134281199Y-95280327D01*
X134366000Y-95195525D01*
X134450801Y-95280327D01*
X134684190Y-95377000D01*
X134936809Y-95377000D01*
X135223250Y-95377000D01*
X135382000Y-95218250D01*
X135382000Y-96787308D01*
X135255000Y-96762047D01*
X134822185Y-96848139D01*
X134455262Y-97093309D01*
X134210092Y-97460232D01*
X134124000Y-97893047D01*
X134124000Y-98956953D01*
X134210092Y-99389768D01*
X134455262Y-99756691D01*
X134822185Y-100001861D01*
X135255000Y-100087953D01*
X135687815Y-100001861D01*
X136054738Y-99756691D01*
X136299908Y-99389768D01*
X136386000Y-98956953D01*
X136386000Y-101804000D01*
X126161000Y-101804000D01*
X126161000Y-95683091D01*
X126212644Y-95760382D01*
X126563345Y-95994714D01*
X126977026Y-96077000D01*
X128038974Y-96077000D01*
X128452655Y-95994714D01*
X128511185Y-95955605D01*
X129539289Y-96983709D01*
X129375262Y-97093309D01*
X129130092Y-97460232D01*
X129044000Y-97893047D01*
X129044000Y-98956953D01*
X129130092Y-99389768D01*
X129375262Y-99756691D01*
X129742185Y-100001861D01*
X130175000Y-100087953D01*
X130607815Y-100001861D01*
X130974738Y-99756691D01*
X131219908Y-99389768D01*
X131306000Y-98956953D01*
X131306000Y-97893047D01*
X131219908Y-97460232D01*
X130974738Y-97093309D01*
X130682398Y-96897973D01*
X130644331Y-96706597D01*
X130534210Y-96541790D01*
X129098147Y-95105727D01*
X129112608Y-95033028D01*
X131466790Y-97387211D01*
X131466793Y-97387213D01*
X131648477Y-97568897D01*
X131584000Y-97893047D01*
X131584000Y-98956953D01*
X131670092Y-99389768D01*
X131915262Y-99756691D01*
X132282185Y-100001861D01*
X132715000Y-100087953D01*
X133147815Y-100001861D01*
X133514738Y-99756691D01*
X133759908Y-99389768D01*
X133846000Y-98956953D01*
X133846000Y-97893047D01*
X133759908Y-97460232D01*
X133514738Y-97093309D01*
X133147815Y-96848139D01*
X133096000Y-96837832D01*
X133096000Y-95218250D01*
X133096000Y-94424500D01*
X132111750Y-94424500D01*
X132048250Y-94424500D01*
X131064000Y-94424500D01*
X131064000Y-95218250D01*
X131222750Y-95377000D01*
X131509191Y-95377000D01*
X131761810Y-95377000D01*
X131995199Y-95280327D01*
X132080000Y-95195525D01*
X132164801Y-95280327D01*
X132398190Y-95377000D01*
X132650809Y-95377000D01*
X132937250Y-95377000D01*
X133096000Y-95218250D01*
X133096000Y-96837832D01*
X132715000Y-96762047D01*
X132350892Y-96834472D01*
X132185213Y-96668793D01*
X132185211Y-96668790D01*
X130772335Y-95255914D01*
X130810000Y-95218250D01*
X130810000Y-94424500D01*
X130790000Y-94424500D01*
X130790000Y-94170500D01*
X130810000Y-94170500D01*
X130810000Y-93376750D01*
X130651250Y-93218000D01*
X131222750Y-93218000D01*
X131064000Y-93376750D01*
X131064000Y-94170500D01*
X132048250Y-94170500D01*
X132111750Y-94170500D01*
X133096000Y-94170500D01*
X133096000Y-94150500D01*
X133350000Y-94150500D01*
X133350000Y-94170500D01*
X134334250Y-94170500D01*
X134397750Y-94170500D01*
X135382000Y-94170500D01*
X135382000Y-94150500D01*
X135636000Y-94150500D01*
X135636000Y-94170500D01*
X135656000Y-94170500D01*
X135656000Y-94424500D01*
X135636000Y-94424500D01*
X135636000Y-95218250D01*
X135794750Y-95377000D01*
X136081191Y-95377000D01*
X136333810Y-95377000D01*
X136567199Y-95280327D01*
X136745827Y-95101698D01*
X136842500Y-94868309D01*
X136842500Y-94583250D01*
X136683752Y-94424502D01*
X136799182Y-94424502D01*
X137272290Y-94897610D01*
X137437096Y-95007731D01*
X137437097Y-95007731D01*
X137469349Y-95014146D01*
X137631500Y-95046400D01*
X138347450Y-95046400D01*
X138347450Y-95134430D01*
X138506200Y-95293180D01*
X139255500Y-95293180D01*
X139255500Y-95273180D01*
X139509500Y-95273180D01*
X139509500Y-95293180D01*
X139529500Y-95293180D01*
X139529500Y-95547180D01*
X139509500Y-95547180D01*
X139509500Y-96396810D01*
X139668250Y-96555560D01*
X139908859Y-96555560D01*
X140102199Y-96475475D01*
X140146790Y-96542210D01*
X140343020Y-96738440D01*
X140343020Y-96738440D01*
G37*
X140343020Y-96738440D02*
X139859164Y-96738440D01*
X139719130Y-96796444D01*
X139611954Y-96903621D01*
X139553950Y-97043655D01*
X139553950Y-97195226D01*
X139553950Y-98195986D01*
X139611954Y-98336020D01*
X139719131Y-98443196D01*
X139827000Y-98487876D01*
X139827000Y-98863334D01*
X139570618Y-99034644D01*
X139336286Y-99385345D01*
X139255500Y-99791484D01*
X139255500Y-96396810D01*
X139255500Y-95547180D01*
X138506200Y-95547180D01*
X138347450Y-95705930D01*
X138347450Y-95794251D01*
X138347450Y-96046870D01*
X138444123Y-96280259D01*
X138622752Y-96458887D01*
X138856141Y-96555560D01*
X139096750Y-96555560D01*
X139255500Y-96396810D01*
X139255500Y-99791484D01*
X139254000Y-99799026D01*
X139254000Y-100860974D01*
X139336286Y-101274655D01*
X139570618Y-101625356D01*
X139837976Y-101804000D01*
X136842500Y-101804000D01*
X136386000Y-101804000D01*
X136386000Y-98956953D01*
X136386000Y-97893047D01*
X136299908Y-97460232D01*
X136054738Y-97093309D01*
X135687815Y-96848139D01*
X135382000Y-96787308D01*
X135382000Y-95218250D01*
X135382000Y-94424500D01*
X134397750Y-94424500D01*
X134334250Y-94424500D01*
X133350000Y-94424500D01*
X133350000Y-95218250D01*
X133508750Y-95377000D01*
X133795191Y-95377000D01*
X134047810Y-95377000D01*
X134281199Y-95280327D01*
X134366000Y-95195525D01*
X134450801Y-95280327D01*
X134684190Y-95377000D01*
X134936809Y-95377000D01*
X135223250Y-95377000D01*
X135382000Y-95218250D01*
X135382000Y-96787308D01*
X135255000Y-96762047D01*
X134822185Y-96848139D01*
X134455262Y-97093309D01*
X134210092Y-97460232D01*
X134124000Y-97893047D01*
X134124000Y-98956953D01*
X134210092Y-99389768D01*
X134455262Y-99756691D01*
X134822185Y-100001861D01*
X135255000Y-100087953D01*
X135687815Y-100001861D01*
X136054738Y-99756691D01*
X136299908Y-99389768D01*
X136386000Y-98956953D01*
X136386000Y-101804000D01*
X126161000Y-101804000D01*
X126161000Y-95683091D01*
X126212644Y-95760382D01*
X126563345Y-95994714D01*
X126977026Y-96077000D01*
X128038974Y-96077000D01*
X128452655Y-95994714D01*
X128511185Y-95955605D01*
X129539289Y-96983709D01*
X129375262Y-97093309D01*
X129130092Y-97460232D01*
X129044000Y-97893047D01*
X129044000Y-98956953D01*
X129130092Y-99389768D01*
X129375262Y-99756691D01*
X129742185Y-100001861D01*
X130175000Y-100087953D01*
X130607815Y-100001861D01*
X130974738Y-99756691D01*
X131219908Y-99389768D01*
X131306000Y-98956953D01*
X131306000Y-97893047D01*
X131219908Y-97460232D01*
X130974738Y-97093309D01*
X130682398Y-96897973D01*
X130644331Y-96706597D01*
X130534210Y-96541790D01*
X129098147Y-95105727D01*
X129112608Y-95033028D01*
X131466790Y-97387211D01*
X131466793Y-97387213D01*
X131648477Y-97568897D01*
X131584000Y-97893047D01*
X131584000Y-98956953D01*
X131670092Y-99389768D01*
X131915262Y-99756691D01*
X132282185Y-100001861D01*
X132715000Y-100087953D01*
X133147815Y-100001861D01*
X133514738Y-99756691D01*
X133759908Y-99389768D01*
X133846000Y-98956953D01*
X133846000Y-97893047D01*
X133759908Y-97460232D01*
X133514738Y-97093309D01*
X133147815Y-96848139D01*
X133096000Y-96837832D01*
X133096000Y-95218250D01*
X133096000Y-94424500D01*
X132111750Y-94424500D01*
X132048250Y-94424500D01*
X131064000Y-94424500D01*
X131064000Y-95218250D01*
X131222750Y-95377000D01*
X131509191Y-95377000D01*
X131761810Y-95377000D01*
X131995199Y-95280327D01*
X132080000Y-95195525D01*
X132164801Y-95280327D01*
X132398190Y-95377000D01*
X132650809Y-95377000D01*
X132937250Y-95377000D01*
X133096000Y-95218250D01*
X133096000Y-96837832D01*
X132715000Y-96762047D01*
X132350892Y-96834472D01*
X132185213Y-96668793D01*
X132185211Y-96668790D01*
X130772335Y-95255914D01*
X130810000Y-95218250D01*
X130810000Y-94424500D01*
X130790000Y-94424500D01*
X130790000Y-94170500D01*
X130810000Y-94170500D01*
X130810000Y-93376750D01*
X130651250Y-93218000D01*
X131222750Y-93218000D01*
X131064000Y-93376750D01*
X131064000Y-94170500D01*
X132048250Y-94170500D01*
X132111750Y-94170500D01*
X133096000Y-94170500D01*
X133096000Y-94150500D01*
X133350000Y-94150500D01*
X133350000Y-94170500D01*
X134334250Y-94170500D01*
X134397750Y-94170500D01*
X135382000Y-94170500D01*
X135382000Y-94150500D01*
X135636000Y-94150500D01*
X135636000Y-94170500D01*
X135656000Y-94170500D01*
X135656000Y-94424500D01*
X135636000Y-94424500D01*
X135636000Y-95218250D01*
X135794750Y-95377000D01*
X136081191Y-95377000D01*
X136333810Y-95377000D01*
X136567199Y-95280327D01*
X136745827Y-95101698D01*
X136842500Y-94868309D01*
X136842500Y-94583250D01*
X136683752Y-94424502D01*
X136799182Y-94424502D01*
X137272290Y-94897610D01*
X137437096Y-95007731D01*
X137437097Y-95007731D01*
X137469349Y-95014146D01*
X137631500Y-95046400D01*
X138347450Y-95046400D01*
X138347450Y-95134430D01*
X138506200Y-95293180D01*
X139255500Y-95293180D01*
X139255500Y-95273180D01*
X139509500Y-95273180D01*
X139509500Y-95293180D01*
X139529500Y-95293180D01*
X139529500Y-95547180D01*
X139509500Y-95547180D01*
X139509500Y-96396810D01*
X139668250Y-96555560D01*
X139908859Y-96555560D01*
X140102199Y-96475475D01*
X140146790Y-96542210D01*
X140343020Y-96738440D01*
G36*
X144976313Y-88668994D02*
X144876233Y-88768900D01*
X139941400Y-88768900D01*
X139901579Y-88776820D01*
X139937000Y-88691309D01*
X139937000Y-88550750D01*
X139778250Y-88392000D01*
X138429000Y-88392000D01*
X138429000Y-88412000D01*
X138175000Y-88412000D01*
X138175000Y-88392000D01*
X138155000Y-88392000D01*
X138155000Y-88138000D01*
X138175000Y-88138000D01*
X138175000Y-88118000D01*
X138429000Y-88118000D01*
X138429000Y-88138000D01*
X139778250Y-88138000D01*
X139937000Y-87979250D01*
X139937000Y-87838691D01*
X139840327Y-87605302D01*
X139728946Y-87493920D01*
X139877703Y-87464331D01*
X139955273Y-87412500D01*
X143697579Y-87412500D01*
X144909290Y-88624211D01*
X144976313Y-88668994D01*
X144976313Y-88668994D01*
G37*
X144976313Y-88668994D02*
X144876233Y-88768900D01*
X139941400Y-88768900D01*
X139901579Y-88776820D01*
X139937000Y-88691309D01*
X139937000Y-88550750D01*
X139778250Y-88392000D01*
X138429000Y-88392000D01*
X138429000Y-88412000D01*
X138175000Y-88412000D01*
X138175000Y-88392000D01*
X138155000Y-88392000D01*
X138155000Y-88138000D01*
X138175000Y-88138000D01*
X138175000Y-88118000D01*
X138429000Y-88118000D01*
X138429000Y-88138000D01*
X139778250Y-88138000D01*
X139937000Y-87979250D01*
X139937000Y-87838691D01*
X139840327Y-87605302D01*
X139728946Y-87493920D01*
X139877703Y-87464331D01*
X139955273Y-87412500D01*
X143697579Y-87412500D01*
X144909290Y-88624211D01*
X144976313Y-88668994D01*
G36*
X158178500Y-87439400D02*
X156086500Y-87439400D01*
X155924349Y-87471653D01*
X155892096Y-87478069D01*
X155727290Y-87588190D01*
X155003500Y-88311980D01*
X155003500Y-88233250D01*
X155003500Y-87661750D01*
X155003500Y-87376691D01*
X154906827Y-87143302D01*
X154728199Y-86964673D01*
X154494810Y-86868000D01*
X154242191Y-86868000D01*
X153955750Y-86868000D01*
X153797000Y-87026750D01*
X153797000Y-87820500D01*
X154844750Y-87820500D01*
X155003500Y-87661750D01*
X155003500Y-88233250D01*
X154844750Y-88074500D01*
X153797000Y-88074500D01*
X153797000Y-88094500D01*
X153543000Y-88094500D01*
X153543000Y-88074500D01*
X153543000Y-87820500D01*
X153543000Y-87026750D01*
X153416000Y-86899750D01*
X153416000Y-85660810D01*
X153416000Y-85408191D01*
X153416000Y-85121750D01*
X153416000Y-84550250D01*
X153416000Y-84263809D01*
X153416000Y-84011190D01*
X153319327Y-83777801D01*
X153140698Y-83599173D01*
X152907309Y-83502500D01*
X152622250Y-83502500D01*
X152463500Y-83661250D01*
X152463500Y-84709000D01*
X153257250Y-84709000D01*
X153416000Y-84550250D01*
X153416000Y-85121750D01*
X153257250Y-84963000D01*
X152463500Y-84963000D01*
X152463500Y-86010750D01*
X152622250Y-86169500D01*
X152907309Y-86169500D01*
X153140698Y-86072827D01*
X153319327Y-85894199D01*
X153416000Y-85660810D01*
X153416000Y-86899750D01*
X153384250Y-86868000D01*
X153097809Y-86868000D01*
X152845190Y-86868000D01*
X152611801Y-86964673D01*
X152433173Y-87143302D01*
X152336500Y-87376691D01*
X152336500Y-87661750D01*
X152495250Y-87820500D01*
X153543000Y-87820500D01*
X153543000Y-88074500D01*
X152495250Y-88074500D01*
X152336500Y-88233250D01*
X152336500Y-88328500D01*
X151701500Y-88328500D01*
X151701500Y-88316214D01*
X151643496Y-88176180D01*
X151536319Y-88069004D01*
X151396285Y-88011000D01*
X151446810Y-88011000D01*
X151680199Y-87914327D01*
X151858827Y-87735698D01*
X151955500Y-87502309D01*
X151955500Y-87217250D01*
X151796750Y-87058500D01*
X150749000Y-87058500D01*
X150749000Y-87078500D01*
X150495000Y-87078500D01*
X150495000Y-87058500D01*
X149447250Y-87058500D01*
X149288500Y-87217250D01*
X149288500Y-87232250D01*
X149178250Y-87122000D01*
X147829000Y-87122000D01*
X147829000Y-87142000D01*
X147575000Y-87142000D01*
X147575000Y-87122000D01*
X146225750Y-87122000D01*
X146067000Y-87280750D01*
X146067000Y-87421309D01*
X146163673Y-87654698D01*
X146265974Y-87757000D01*
X145478920Y-87757000D01*
X144416000Y-86694079D01*
X144416000Y-84036720D01*
X146321000Y-82131720D01*
X146321000Y-82290786D01*
X146379004Y-82430820D01*
X146486181Y-82537996D01*
X146515160Y-82549999D01*
X146486180Y-82562004D01*
X146379004Y-82669181D01*
X146321000Y-82809215D01*
X146321000Y-82960786D01*
X146321000Y-83560786D01*
X146379004Y-83700820D01*
X146486181Y-83807996D01*
X146515160Y-83819999D01*
X146486180Y-83832004D01*
X146379004Y-83939181D01*
X146321000Y-84079215D01*
X146321000Y-84230786D01*
X146321000Y-84830786D01*
X146379004Y-84970820D01*
X146486181Y-85077996D01*
X146515160Y-85089999D01*
X146486180Y-85102004D01*
X146379004Y-85209181D01*
X146321000Y-85349215D01*
X146321000Y-85500786D01*
X146321000Y-86100786D01*
X146343878Y-86156019D01*
X146342301Y-86156673D01*
X146163673Y-86335302D01*
X146067000Y-86568691D01*
X146067000Y-86709250D01*
X146225750Y-86868000D01*
X147575000Y-86868000D01*
X147575000Y-86848000D01*
X147829000Y-86848000D01*
X147829000Y-86868000D01*
X149178250Y-86868000D01*
X149337000Y-86709250D01*
X149337000Y-86694250D01*
X149447250Y-86804500D01*
X150495000Y-86804500D01*
X150495000Y-86784500D01*
X150749000Y-86784500D01*
X150749000Y-86804500D01*
X151796750Y-86804500D01*
X151955500Y-86645750D01*
X151955500Y-86360691D01*
X151876306Y-86169500D01*
X152050750Y-86169500D01*
X152209500Y-86010750D01*
X152209500Y-84963000D01*
X151415750Y-84963000D01*
X151257000Y-85121750D01*
X151257000Y-84550250D01*
X151415750Y-84709000D01*
X152209500Y-84709000D01*
X152209500Y-83661250D01*
X152050750Y-83502500D01*
X151765691Y-83502500D01*
X151532302Y-83599173D01*
X151353673Y-83777801D01*
X151257000Y-84011190D01*
X151257000Y-84061714D01*
X151198996Y-83921680D01*
X151091819Y-83814504D01*
X150951785Y-83756500D01*
X150800214Y-83756500D01*
X149911214Y-83756500D01*
X149771180Y-83814504D01*
X149664004Y-83921681D01*
X149606000Y-84061715D01*
X149606000Y-84213286D01*
X149606000Y-84328000D01*
X149291000Y-84328000D01*
X149231480Y-84339839D01*
X152846507Y-80724812D01*
X152881411Y-80759716D01*
X152911066Y-80771999D01*
X152881410Y-80784284D01*
X152774234Y-80891461D01*
X152716230Y-81031495D01*
X152716230Y-81183066D01*
X152716230Y-81782506D01*
X152774234Y-81922540D01*
X152881411Y-82029716D01*
X152911066Y-82041999D01*
X152881410Y-82054284D01*
X152774234Y-82161461D01*
X152716230Y-82301495D01*
X152716230Y-82453066D01*
X152716230Y-83052506D01*
X152774234Y-83192540D01*
X152881411Y-83299716D01*
X153021445Y-83357720D01*
X153173016Y-83357720D01*
X153610162Y-83357720D01*
X153545943Y-83512377D01*
X153545657Y-83840782D01*
X153671067Y-84144298D01*
X153903081Y-84376717D01*
X154206377Y-84502657D01*
X154534782Y-84502943D01*
X154838298Y-84377533D01*
X155070717Y-84145519D01*
X155196657Y-83842223D01*
X155196893Y-83570126D01*
X155237310Y-83529711D01*
X155237310Y-83529710D01*
X155347431Y-83364904D01*
X155347431Y-83364903D01*
X155353846Y-83332650D01*
X155386099Y-83170500D01*
X155386100Y-83170500D01*
X155386100Y-82677000D01*
X155347431Y-82482597D01*
X155237310Y-82317790D01*
X155072503Y-82207669D01*
X154878100Y-82169000D01*
X154822889Y-82169000D01*
X154819766Y-82161460D01*
X154712589Y-82054284D01*
X154682933Y-82042000D01*
X154712590Y-82029716D01*
X154819766Y-81922539D01*
X154822888Y-81915000D01*
X154878100Y-81915000D01*
X158049900Y-81915000D01*
X158082500Y-81915000D01*
X158082500Y-82223588D01*
X158050230Y-82301495D01*
X158050230Y-82453066D01*
X158050230Y-82498850D01*
X157809090Y-82739990D01*
X157698969Y-82904797D01*
X157660300Y-83099200D01*
X157660300Y-86413200D01*
X157698969Y-86607603D01*
X157809090Y-86772410D01*
X158178500Y-87141820D01*
X158178500Y-87439400D01*
X158178500Y-87439400D01*
G37*
X158178500Y-87439400D02*
X156086500Y-87439400D01*
X155924349Y-87471653D01*
X155892096Y-87478069D01*
X155727290Y-87588190D01*
X155003500Y-88311980D01*
X155003500Y-88233250D01*
X155003500Y-87661750D01*
X155003500Y-87376691D01*
X154906827Y-87143302D01*
X154728199Y-86964673D01*
X154494810Y-86868000D01*
X154242191Y-86868000D01*
X153955750Y-86868000D01*
X153797000Y-87026750D01*
X153797000Y-87820500D01*
X154844750Y-87820500D01*
X155003500Y-87661750D01*
X155003500Y-88233250D01*
X154844750Y-88074500D01*
X153797000Y-88074500D01*
X153797000Y-88094500D01*
X153543000Y-88094500D01*
X153543000Y-88074500D01*
X153543000Y-87820500D01*
X153543000Y-87026750D01*
X153416000Y-86899750D01*
X153416000Y-85660810D01*
X153416000Y-85408191D01*
X153416000Y-85121750D01*
X153416000Y-84550250D01*
X153416000Y-84263809D01*
X153416000Y-84011190D01*
X153319327Y-83777801D01*
X153140698Y-83599173D01*
X152907309Y-83502500D01*
X152622250Y-83502500D01*
X152463500Y-83661250D01*
X152463500Y-84709000D01*
X153257250Y-84709000D01*
X153416000Y-84550250D01*
X153416000Y-85121750D01*
X153257250Y-84963000D01*
X152463500Y-84963000D01*
X152463500Y-86010750D01*
X152622250Y-86169500D01*
X152907309Y-86169500D01*
X153140698Y-86072827D01*
X153319327Y-85894199D01*
X153416000Y-85660810D01*
X153416000Y-86899750D01*
X153384250Y-86868000D01*
X153097809Y-86868000D01*
X152845190Y-86868000D01*
X152611801Y-86964673D01*
X152433173Y-87143302D01*
X152336500Y-87376691D01*
X152336500Y-87661750D01*
X152495250Y-87820500D01*
X153543000Y-87820500D01*
X153543000Y-88074500D01*
X152495250Y-88074500D01*
X152336500Y-88233250D01*
X152336500Y-88328500D01*
X151701500Y-88328500D01*
X151701500Y-88316214D01*
X151643496Y-88176180D01*
X151536319Y-88069004D01*
X151396285Y-88011000D01*
X151446810Y-88011000D01*
X151680199Y-87914327D01*
X151858827Y-87735698D01*
X151955500Y-87502309D01*
X151955500Y-87217250D01*
X151796750Y-87058500D01*
X150749000Y-87058500D01*
X150749000Y-87078500D01*
X150495000Y-87078500D01*
X150495000Y-87058500D01*
X149447250Y-87058500D01*
X149288500Y-87217250D01*
X149288500Y-87232250D01*
X149178250Y-87122000D01*
X147829000Y-87122000D01*
X147829000Y-87142000D01*
X147575000Y-87142000D01*
X147575000Y-87122000D01*
X146225750Y-87122000D01*
X146067000Y-87280750D01*
X146067000Y-87421309D01*
X146163673Y-87654698D01*
X146265974Y-87757000D01*
X145478920Y-87757000D01*
X144416000Y-86694079D01*
X144416000Y-84036720D01*
X146321000Y-82131720D01*
X146321000Y-82290786D01*
X146379004Y-82430820D01*
X146486181Y-82537996D01*
X146515160Y-82549999D01*
X146486180Y-82562004D01*
X146379004Y-82669181D01*
X146321000Y-82809215D01*
X146321000Y-82960786D01*
X146321000Y-83560786D01*
X146379004Y-83700820D01*
X146486181Y-83807996D01*
X146515160Y-83819999D01*
X146486180Y-83832004D01*
X146379004Y-83939181D01*
X146321000Y-84079215D01*
X146321000Y-84230786D01*
X146321000Y-84830786D01*
X146379004Y-84970820D01*
X146486181Y-85077996D01*
X146515160Y-85089999D01*
X146486180Y-85102004D01*
X146379004Y-85209181D01*
X146321000Y-85349215D01*
X146321000Y-85500786D01*
X146321000Y-86100786D01*
X146343878Y-86156019D01*
X146342301Y-86156673D01*
X146163673Y-86335302D01*
X146067000Y-86568691D01*
X146067000Y-86709250D01*
X146225750Y-86868000D01*
X147575000Y-86868000D01*
X147575000Y-86848000D01*
X147829000Y-86848000D01*
X147829000Y-86868000D01*
X149178250Y-86868000D01*
X149337000Y-86709250D01*
X149337000Y-86694250D01*
X149447250Y-86804500D01*
X150495000Y-86804500D01*
X150495000Y-86784500D01*
X150749000Y-86784500D01*
X150749000Y-86804500D01*
X151796750Y-86804500D01*
X151955500Y-86645750D01*
X151955500Y-86360691D01*
X151876306Y-86169500D01*
X152050750Y-86169500D01*
X152209500Y-86010750D01*
X152209500Y-84963000D01*
X151415750Y-84963000D01*
X151257000Y-85121750D01*
X151257000Y-84550250D01*
X151415750Y-84709000D01*
X152209500Y-84709000D01*
X152209500Y-83661250D01*
X152050750Y-83502500D01*
X151765691Y-83502500D01*
X151532302Y-83599173D01*
X151353673Y-83777801D01*
X151257000Y-84011190D01*
X151257000Y-84061714D01*
X151198996Y-83921680D01*
X151091819Y-83814504D01*
X150951785Y-83756500D01*
X150800214Y-83756500D01*
X149911214Y-83756500D01*
X149771180Y-83814504D01*
X149664004Y-83921681D01*
X149606000Y-84061715D01*
X149606000Y-84213286D01*
X149606000Y-84328000D01*
X149291000Y-84328000D01*
X149231480Y-84339839D01*
X152846507Y-80724812D01*
X152881411Y-80759716D01*
X152911066Y-80771999D01*
X152881410Y-80784284D01*
X152774234Y-80891461D01*
X152716230Y-81031495D01*
X152716230Y-81183066D01*
X152716230Y-81782506D01*
X152774234Y-81922540D01*
X152881411Y-82029716D01*
X152911066Y-82041999D01*
X152881410Y-82054284D01*
X152774234Y-82161461D01*
X152716230Y-82301495D01*
X152716230Y-82453066D01*
X152716230Y-83052506D01*
X152774234Y-83192540D01*
X152881411Y-83299716D01*
X153021445Y-83357720D01*
X153173016Y-83357720D01*
X153610162Y-83357720D01*
X153545943Y-83512377D01*
X153545657Y-83840782D01*
X153671067Y-84144298D01*
X153903081Y-84376717D01*
X154206377Y-84502657D01*
X154534782Y-84502943D01*
X154838298Y-84377533D01*
X155070717Y-84145519D01*
X155196657Y-83842223D01*
X155196893Y-83570126D01*
X155237310Y-83529711D01*
X155237310Y-83529710D01*
X155347431Y-83364904D01*
X155347431Y-83364903D01*
X155353846Y-83332650D01*
X155386099Y-83170500D01*
X155386100Y-83170500D01*
X155386100Y-82677000D01*
X155347431Y-82482597D01*
X155237310Y-82317790D01*
X155072503Y-82207669D01*
X154878100Y-82169000D01*
X154822889Y-82169000D01*
X154819766Y-82161460D01*
X154712589Y-82054284D01*
X154682933Y-82042000D01*
X154712590Y-82029716D01*
X154819766Y-81922539D01*
X154822888Y-81915000D01*
X154878100Y-81915000D01*
X158049900Y-81915000D01*
X158082500Y-81915000D01*
X158082500Y-82223588D01*
X158050230Y-82301495D01*
X158050230Y-82453066D01*
X158050230Y-82498850D01*
X157809090Y-82739990D01*
X157698969Y-82904797D01*
X157660300Y-83099200D01*
X157660300Y-86413200D01*
X157698969Y-86607603D01*
X157809090Y-86772410D01*
X158178500Y-87141820D01*
X158178500Y-87439400D01*
G36*
X167209000Y-101804000D02*
X155257500Y-101804000D01*
X155257500Y-98551309D01*
X155257500Y-98266250D01*
X155098750Y-98107500D01*
X154051000Y-98107500D01*
X154051000Y-98901250D01*
X154209750Y-99060000D01*
X154496191Y-99060000D01*
X154748810Y-99060000D01*
X154982199Y-98963327D01*
X155160827Y-98784698D01*
X155257500Y-98551309D01*
X155257500Y-101804000D01*
X153797000Y-101804000D01*
X153797000Y-98901250D01*
X153797000Y-98107500D01*
X152749250Y-98107500D01*
X152590500Y-98266250D01*
X152590500Y-98551309D01*
X152687173Y-98784698D01*
X152865801Y-98963327D01*
X153099190Y-99060000D01*
X153351809Y-99060000D01*
X153638250Y-99060000D01*
X153797000Y-98901250D01*
X153797000Y-101804000D01*
X152032921Y-101804000D01*
X152314778Y-101458215D01*
X152465000Y-100957000D01*
X152465000Y-100457000D01*
X152465000Y-100203000D01*
X152465000Y-99703000D01*
X152314778Y-99201785D01*
X151984185Y-98796210D01*
X151523550Y-98548020D01*
X151463329Y-98537284D01*
X151257000Y-98660626D01*
X151257000Y-100203000D01*
X152465000Y-100203000D01*
X152465000Y-100457000D01*
X151257000Y-100457000D01*
X151257000Y-100477000D01*
X151003000Y-100477000D01*
X151003000Y-100457000D01*
X151003000Y-100203000D01*
X151003000Y-98660626D01*
X150796671Y-98537284D01*
X150736450Y-98548020D01*
X150275815Y-98796210D01*
X149945222Y-99201785D01*
X149795000Y-99703000D01*
X149795000Y-100203000D01*
X151003000Y-100203000D01*
X151003000Y-100457000D01*
X149795000Y-100457000D01*
X149795000Y-100957000D01*
X149945222Y-101458215D01*
X150227078Y-101804000D01*
X149087023Y-101804000D01*
X149354382Y-101625356D01*
X149588714Y-101274655D01*
X149671000Y-100860974D01*
X149671000Y-99799026D01*
X149588714Y-99385345D01*
X149354382Y-99034644D01*
X149113637Y-98873782D01*
X149457210Y-98530211D01*
X149457210Y-98530210D01*
X149530790Y-98420090D01*
X149567330Y-98365404D01*
X149567331Y-98365403D01*
X149605999Y-98171000D01*
X149606000Y-98171000D01*
X149606000Y-97853500D01*
X149681786Y-97853500D01*
X150570786Y-97853500D01*
X150710820Y-97795496D01*
X150817996Y-97688319D01*
X150876000Y-97548285D01*
X150876000Y-97396714D01*
X150876000Y-97282000D01*
X152272818Y-97282000D01*
X152273000Y-97282000D01*
X152370594Y-97262587D01*
X152467236Y-97243400D01*
X152467312Y-97243349D01*
X152467403Y-97243331D01*
X152548810Y-97188936D01*
X152632082Y-97133339D01*
X152632210Y-97133210D01*
X152966172Y-96799487D01*
X153009681Y-96842996D01*
X153149715Y-96901000D01*
X153099190Y-96901000D01*
X152865801Y-96997673D01*
X152687173Y-97176302D01*
X152590500Y-97409691D01*
X152590500Y-97694750D01*
X152749250Y-97853500D01*
X153797000Y-97853500D01*
X153797000Y-97059750D01*
X153638250Y-96901000D01*
X154209750Y-96901000D01*
X154051000Y-97059750D01*
X154051000Y-97853500D01*
X155098750Y-97853500D01*
X155257500Y-97694750D01*
X155257500Y-97409691D01*
X155160827Y-97176302D01*
X154982199Y-96997673D01*
X154748810Y-96901000D01*
X154698286Y-96901000D01*
X154838320Y-96842996D01*
X154945496Y-96735819D01*
X155003500Y-96595785D01*
X155003500Y-96444214D01*
X155003500Y-95555214D01*
X154945496Y-95415180D01*
X154838319Y-95308004D01*
X154698285Y-95250000D01*
X154546714Y-95250000D01*
X153149714Y-95250000D01*
X153009680Y-95308004D01*
X152902504Y-95415181D01*
X152844500Y-95555215D01*
X152844500Y-95592850D01*
X152777765Y-95606100D01*
X152777689Y-95606150D01*
X152777597Y-95606169D01*
X152695548Y-95660992D01*
X152612918Y-95716161D01*
X152062685Y-96266000D01*
X150876000Y-96266000D01*
X150876000Y-95999714D01*
X150817996Y-95859680D01*
X150710819Y-95752504D01*
X150570785Y-95694500D01*
X150558000Y-95694500D01*
X150558000Y-95650989D01*
X151489127Y-94720294D01*
X151489161Y-94720242D01*
X151489210Y-94720210D01*
X151543240Y-94639347D01*
X151599286Y-94555512D01*
X151599297Y-94555452D01*
X151599331Y-94555403D01*
X151612738Y-94488000D01*
X151904286Y-94488000D01*
X152044320Y-94429996D01*
X152151496Y-94322819D01*
X152209500Y-94182785D01*
X152209500Y-94031214D01*
X152209500Y-93142214D01*
X152151496Y-93002180D01*
X152044319Y-92895004D01*
X151904285Y-92837000D01*
X151752714Y-92837000D01*
X150355714Y-92837000D01*
X150215680Y-92895004D01*
X150108504Y-93002181D01*
X150050500Y-93142215D01*
X150050500Y-93293786D01*
X150050500Y-94182786D01*
X150108504Y-94322820D01*
X150215681Y-94429996D01*
X150305262Y-94467101D01*
X149690873Y-95081207D01*
X149690839Y-95081256D01*
X149690790Y-95081290D01*
X149636082Y-95163164D01*
X149580714Y-95245988D01*
X149580702Y-95246047D01*
X149580669Y-95246097D01*
X149561420Y-95342867D01*
X149548397Y-95408259D01*
X149457210Y-95271790D01*
X148211420Y-94026000D01*
X148777786Y-94026000D01*
X148917820Y-93967996D01*
X149024996Y-93860819D01*
X149083000Y-93720785D01*
X149083000Y-93569214D01*
X149083000Y-92969214D01*
X149024996Y-92829180D01*
X148917819Y-92722004D01*
X148888839Y-92710000D01*
X148917820Y-92697996D01*
X149024996Y-92590819D01*
X149083000Y-92450785D01*
X149083000Y-92299214D01*
X149083000Y-91699214D01*
X149024996Y-91559180D01*
X148917819Y-91452004D01*
X148888839Y-91440000D01*
X148917820Y-91427996D01*
X149024996Y-91320819D01*
X149083000Y-91180785D01*
X149083000Y-91029214D01*
X149083000Y-90429214D01*
X149024996Y-90289180D01*
X148917819Y-90182004D01*
X148888839Y-90170000D01*
X148917820Y-90157996D01*
X148963043Y-90112772D01*
X149066397Y-90181831D01*
X149260800Y-90220500D01*
X151528997Y-90220500D01*
X151720081Y-90411917D01*
X152023377Y-90537857D01*
X152351782Y-90538143D01*
X152614097Y-90429756D01*
X152648504Y-90512820D01*
X152755681Y-90619996D01*
X152895715Y-90678000D01*
X153047286Y-90678000D01*
X154444286Y-90678000D01*
X154584320Y-90619996D01*
X154627808Y-90576507D01*
X155088790Y-91037210D01*
X155088899Y-91037319D01*
X155171646Y-91092573D01*
X155253597Y-91147331D01*
X155253673Y-91147346D01*
X155253739Y-91147390D01*
X155351139Y-91166733D01*
X155448000Y-91186000D01*
X155448154Y-91186000D01*
X155710764Y-91186000D01*
X155714004Y-91193820D01*
X155821181Y-91300996D01*
X155850160Y-91312999D01*
X155821180Y-91325004D01*
X155714004Y-91432181D01*
X155656000Y-91572215D01*
X155656000Y-91723786D01*
X155656000Y-92323786D01*
X155714004Y-92463820D01*
X155821181Y-92570996D01*
X155850160Y-92582999D01*
X155821180Y-92595004D01*
X155714004Y-92702181D01*
X155710765Y-92710000D01*
X155448000Y-92710000D01*
X155447854Y-92710028D01*
X155447714Y-92710001D01*
X155351725Y-92729150D01*
X155253597Y-92748669D01*
X155253475Y-92748750D01*
X155253332Y-92748779D01*
X155170521Y-92804178D01*
X155088790Y-92858790D01*
X155088710Y-92858909D01*
X155088587Y-92858992D01*
X154793412Y-93154500D01*
X154749500Y-93154500D01*
X154749500Y-93142214D01*
X154749500Y-92277785D01*
X154749500Y-92126214D01*
X154749500Y-91237214D01*
X154691496Y-91097180D01*
X154584319Y-90990004D01*
X154444285Y-90932000D01*
X154292714Y-90932000D01*
X152895714Y-90932000D01*
X152755680Y-90990004D01*
X152648504Y-91097181D01*
X152590500Y-91237215D01*
X152590500Y-91249500D01*
X152209500Y-91249500D01*
X152209500Y-91237214D01*
X152151496Y-91097180D01*
X152044319Y-90990004D01*
X151904285Y-90932000D01*
X151752714Y-90932000D01*
X150355714Y-90932000D01*
X150215680Y-90990004D01*
X150108504Y-91097181D01*
X150050500Y-91237215D01*
X150050500Y-91388786D01*
X150050500Y-92277786D01*
X150108504Y-92417820D01*
X150215681Y-92524996D01*
X150355715Y-92583000D01*
X150507286Y-92583000D01*
X151904286Y-92583000D01*
X152044320Y-92524996D01*
X152151496Y-92417819D01*
X152209500Y-92277785D01*
X152209500Y-92265500D01*
X152590500Y-92265500D01*
X152590500Y-92277786D01*
X152648504Y-92417820D01*
X152755681Y-92524996D01*
X152895715Y-92583000D01*
X153047286Y-92583000D01*
X154444286Y-92583000D01*
X154584320Y-92524996D01*
X154691496Y-92417819D01*
X154749500Y-92277785D01*
X154749500Y-93142214D01*
X154691496Y-93002180D01*
X154584319Y-92895004D01*
X154444285Y-92837000D01*
X154292714Y-92837000D01*
X152895714Y-92837000D01*
X152755680Y-92895004D01*
X152648504Y-93002181D01*
X152590500Y-93142215D01*
X152590500Y-93293786D01*
X152590500Y-94182786D01*
X152648504Y-94322820D01*
X152755681Y-94429996D01*
X152895715Y-94488000D01*
X153047286Y-94488000D01*
X154444286Y-94488000D01*
X154584320Y-94429996D01*
X154691496Y-94322819D01*
X154749500Y-94182785D01*
X154749500Y-94170500D01*
X155004000Y-94170500D01*
X155004142Y-94170471D01*
X155004286Y-94170500D01*
X155101136Y-94151178D01*
X155198403Y-94131831D01*
X155198524Y-94131749D01*
X155198668Y-94131721D01*
X155281065Y-94076597D01*
X155363210Y-94021710D01*
X155363290Y-94021589D01*
X155363412Y-94021508D01*
X155658587Y-93726000D01*
X155710764Y-93726000D01*
X155714004Y-93733820D01*
X155821181Y-93840996D01*
X155961215Y-93899000D01*
X156112786Y-93899000D01*
X156304000Y-93899000D01*
X156304000Y-94963000D01*
X156342669Y-95157403D01*
X156452790Y-95322210D01*
X157501790Y-96371210D01*
X157666597Y-96481331D01*
X157734000Y-96494738D01*
X157734000Y-96786286D01*
X157792004Y-96926320D01*
X157899181Y-97033496D01*
X158039215Y-97091500D01*
X158052000Y-97091500D01*
X158052000Y-97152986D01*
X158051500Y-97155500D01*
X158051500Y-97218500D01*
X158039214Y-97218500D01*
X157899180Y-97276504D01*
X157792004Y-97383681D01*
X157734000Y-97523715D01*
X157734000Y-97675286D01*
X157734000Y-99072286D01*
X157792004Y-99212320D01*
X157899181Y-99319496D01*
X158039215Y-99377500D01*
X158190786Y-99377500D01*
X159079786Y-99377500D01*
X159219820Y-99319496D01*
X159326996Y-99212319D01*
X159385000Y-99072285D01*
X159385000Y-98920714D01*
X159385000Y-97523714D01*
X159326996Y-97383680D01*
X159219819Y-97276504D01*
X159079785Y-97218500D01*
X159068000Y-97218500D01*
X159068000Y-97155000D01*
X159068000Y-97091500D01*
X159079786Y-97091500D01*
X159219820Y-97033496D01*
X159326996Y-96926319D01*
X159385000Y-96786285D01*
X159385000Y-96634714D01*
X159385000Y-95237714D01*
X159326996Y-95097680D01*
X159219819Y-94990504D01*
X159079785Y-94932500D01*
X158928214Y-94932500D01*
X158039214Y-94932500D01*
X157899180Y-94990504D01*
X157792004Y-95097681D01*
X157754834Y-95187414D01*
X157320000Y-94752580D01*
X157320000Y-93899000D01*
X157662786Y-93899000D01*
X157802820Y-93840996D01*
X157909996Y-93733819D01*
X157968000Y-93593785D01*
X157968000Y-93442214D01*
X157968000Y-92842214D01*
X157909996Y-92702180D01*
X157802819Y-92595004D01*
X157773839Y-92583000D01*
X157802820Y-92570996D01*
X157909996Y-92463819D01*
X157968000Y-92323785D01*
X157968000Y-92172214D01*
X157968000Y-91572214D01*
X157909996Y-91432180D01*
X157802819Y-91325004D01*
X157773839Y-91313000D01*
X157802820Y-91300996D01*
X157909996Y-91193819D01*
X157968000Y-91053785D01*
X157968000Y-90902214D01*
X157968000Y-90302214D01*
X157909996Y-90162180D01*
X157881756Y-90133940D01*
X158121177Y-90233357D01*
X158449582Y-90233643D01*
X158753098Y-90108233D01*
X158764658Y-90096692D01*
X158788669Y-90217403D01*
X158898790Y-90382210D01*
X160823790Y-92307210D01*
X160988596Y-92417331D01*
X160988597Y-92417331D01*
X161104278Y-92440341D01*
X161114004Y-92463820D01*
X161221181Y-92570996D01*
X161250160Y-92582999D01*
X161221180Y-92595004D01*
X161114004Y-92702181D01*
X161056000Y-92842215D01*
X161056000Y-92993786D01*
X161056000Y-93593786D01*
X161114004Y-93733820D01*
X161221181Y-93840996D01*
X161361215Y-93899000D01*
X161512786Y-93899000D01*
X161704000Y-93899000D01*
X161704000Y-94752580D01*
X161269165Y-95187414D01*
X161231996Y-95097680D01*
X161124819Y-94990504D01*
X160984785Y-94932500D01*
X160833214Y-94932500D01*
X159944214Y-94932500D01*
X159804180Y-94990504D01*
X159697004Y-95097681D01*
X159639000Y-95237715D01*
X159639000Y-95389286D01*
X159639000Y-96786286D01*
X159697004Y-96926320D01*
X159804181Y-97033496D01*
X159944215Y-97091500D01*
X159956000Y-97091500D01*
X159956000Y-97155000D01*
X159956000Y-97218500D01*
X159944214Y-97218500D01*
X159804180Y-97276504D01*
X159697004Y-97383681D01*
X159639000Y-97523715D01*
X159639000Y-97675286D01*
X159639000Y-99072286D01*
X159697004Y-99212320D01*
X159804181Y-99319496D01*
X159944215Y-99377500D01*
X160095786Y-99377500D01*
X160984786Y-99377500D01*
X161124820Y-99319496D01*
X161231996Y-99212319D01*
X161290000Y-99072285D01*
X161290000Y-98920714D01*
X161290000Y-97523714D01*
X161231996Y-97383680D01*
X161124819Y-97276504D01*
X160984785Y-97218500D01*
X160972500Y-97218500D01*
X160972500Y-97155500D01*
X160972000Y-97152986D01*
X160972000Y-97091500D01*
X160984786Y-97091500D01*
X161124820Y-97033496D01*
X161231996Y-96926319D01*
X161290000Y-96786285D01*
X161290000Y-96634714D01*
X161290000Y-96494738D01*
X161357403Y-96481331D01*
X161522210Y-96371210D01*
X162571210Y-95322210D01*
X162681331Y-95157403D01*
X162720000Y-94963000D01*
X162720000Y-93899000D01*
X163062786Y-93899000D01*
X163202820Y-93840996D01*
X163309996Y-93733819D01*
X163313234Y-93726000D01*
X164057052Y-93726000D01*
X164058644Y-93728382D01*
X164409345Y-93962714D01*
X164823026Y-94045000D01*
X165884974Y-94045000D01*
X166298655Y-93962714D01*
X166649356Y-93728382D01*
X166883688Y-93377681D01*
X166965974Y-92964000D01*
X166883688Y-92550319D01*
X166649356Y-92199618D01*
X166298655Y-91965286D01*
X165884974Y-91883000D01*
X164823026Y-91883000D01*
X164409345Y-91965286D01*
X164058644Y-92199618D01*
X163824312Y-92550319D01*
X163792549Y-92710000D01*
X163313235Y-92710000D01*
X163309996Y-92702180D01*
X163202819Y-92595004D01*
X163173839Y-92583000D01*
X163202820Y-92570996D01*
X163309996Y-92463819D01*
X163368000Y-92323785D01*
X163368000Y-92172214D01*
X163368000Y-91572214D01*
X163345121Y-91516980D01*
X163346699Y-91516327D01*
X163525327Y-91337698D01*
X163622000Y-91104309D01*
X163622000Y-90963750D01*
X163562253Y-90904003D01*
X163703000Y-90932000D01*
X163887334Y-90932000D01*
X164058644Y-91188382D01*
X164409345Y-91422714D01*
X164823026Y-91505000D01*
X165884974Y-91505000D01*
X166298655Y-91422714D01*
X166649356Y-91188382D01*
X166883688Y-90837681D01*
X166965974Y-90424000D01*
X166883688Y-90010319D01*
X166649356Y-89659618D01*
X166298655Y-89425286D01*
X165884974Y-89343000D01*
X164823026Y-89343000D01*
X164409345Y-89425286D01*
X164058644Y-89659618D01*
X163897782Y-89900362D01*
X163368000Y-89370580D01*
X163368000Y-89032214D01*
X163309996Y-88892180D01*
X163202819Y-88785004D01*
X163062785Y-88727000D01*
X162911214Y-88727000D01*
X161361214Y-88727000D01*
X161221180Y-88785004D01*
X161114004Y-88892181D01*
X161056000Y-89032215D01*
X161056000Y-89183786D01*
X161056000Y-89783786D01*
X161078878Y-89839019D01*
X161077301Y-89839673D01*
X160898673Y-90018302D01*
X160802000Y-90251691D01*
X160802000Y-90392250D01*
X160960750Y-90551000D01*
X162085000Y-90551000D01*
X162085000Y-90531000D01*
X162339000Y-90531000D01*
X162339000Y-90551000D01*
X162359000Y-90551000D01*
X162359000Y-90805000D01*
X162339000Y-90805000D01*
X162339000Y-90825000D01*
X162085000Y-90825000D01*
X162085000Y-90805000D01*
X160960750Y-90805000D01*
X160859585Y-90906165D01*
X159766000Y-89812580D01*
X159766000Y-87947400D01*
X159766000Y-87884000D01*
X160032286Y-87884000D01*
X160172320Y-87825996D01*
X160279496Y-87718819D01*
X160337500Y-87578785D01*
X160337500Y-87427214D01*
X160337500Y-86538214D01*
X160279496Y-86398180D01*
X160172319Y-86291004D01*
X160032285Y-86233000D01*
X160082810Y-86233000D01*
X160316199Y-86136327D01*
X160494827Y-85957698D01*
X160591500Y-85724309D01*
X160591500Y-85439250D01*
X160591500Y-84867750D01*
X160591500Y-84582691D01*
X160494827Y-84349302D01*
X160316199Y-84170673D01*
X160082810Y-84074000D01*
X159830191Y-84074000D01*
X159543750Y-84074000D01*
X159385000Y-84232750D01*
X159385000Y-85026500D01*
X160432750Y-85026500D01*
X160591500Y-84867750D01*
X160591500Y-85439250D01*
X160432750Y-85280500D01*
X159385000Y-85280500D01*
X159385000Y-85300500D01*
X159131000Y-85300500D01*
X159131000Y-85280500D01*
X159111000Y-85280500D01*
X159111000Y-85026500D01*
X159131000Y-85026500D01*
X159131000Y-84232750D01*
X158972250Y-84074000D01*
X158685809Y-84074000D01*
X158676300Y-84074000D01*
X158676300Y-83357720D01*
X159906556Y-83357720D01*
X160046590Y-83299716D01*
X160153766Y-83192539D01*
X160211770Y-83052505D01*
X160211770Y-82900934D01*
X160211770Y-82301494D01*
X160153766Y-82161460D01*
X160046589Y-82054284D01*
X160016933Y-82042000D01*
X160046590Y-82029716D01*
X160153766Y-81922539D01*
X160156888Y-81915000D01*
X160972500Y-81915000D01*
X160972500Y-82244786D01*
X161030504Y-82384820D01*
X161137681Y-82491996D01*
X161277715Y-82550000D01*
X161429286Y-82550000D01*
X162826286Y-82550000D01*
X162966320Y-82491996D01*
X163073496Y-82384819D01*
X163131500Y-82244785D01*
X163131500Y-82093214D01*
X163131500Y-81204214D01*
X163073496Y-81064180D01*
X162966319Y-80957004D01*
X162826285Y-80899000D01*
X162876810Y-80899000D01*
X163110199Y-80802327D01*
X163288827Y-80623698D01*
X163385500Y-80390309D01*
X163385500Y-80105250D01*
X163385500Y-79533750D01*
X163385500Y-79248691D01*
X163288827Y-79015302D01*
X163110199Y-78836673D01*
X162876810Y-78740000D01*
X162624191Y-78740000D01*
X162337750Y-78740000D01*
X162179000Y-78898750D01*
X162179000Y-79692500D01*
X163226750Y-79692500D01*
X163385500Y-79533750D01*
X163385500Y-80105250D01*
X163226750Y-79946500D01*
X162179000Y-79946500D01*
X162179000Y-79966500D01*
X161925000Y-79966500D01*
X161925000Y-79946500D01*
X161925000Y-79692500D01*
X161925000Y-78898750D01*
X161766250Y-78740000D01*
X161479809Y-78740000D01*
X161227190Y-78740000D01*
X160993801Y-78836673D01*
X160815173Y-79015302D01*
X160718500Y-79248691D01*
X160718500Y-79533750D01*
X160877250Y-79692500D01*
X161925000Y-79692500D01*
X161925000Y-79946500D01*
X160877250Y-79946500D01*
X160718500Y-80105250D01*
X160718500Y-80390309D01*
X160815173Y-80623698D01*
X160993801Y-80802327D01*
X161227190Y-80899000D01*
X160266515Y-80899000D01*
X160369097Y-80796418D01*
X160465770Y-80563029D01*
X160465770Y-80422750D01*
X160307020Y-80264000D01*
X159258000Y-80264000D01*
X159258000Y-80284000D01*
X159004000Y-80284000D01*
X159004000Y-80264000D01*
X157954980Y-80264000D01*
X157796230Y-80422750D01*
X157796230Y-80563029D01*
X157892903Y-80796418D01*
X157995484Y-80899000D01*
X154878100Y-80899000D01*
X154822889Y-80899000D01*
X154819766Y-80891460D01*
X154712589Y-80784284D01*
X154682933Y-80772000D01*
X154712590Y-80759716D01*
X154819766Y-80652539D01*
X154877770Y-80512505D01*
X154877770Y-80360934D01*
X154877770Y-79761494D01*
X154819766Y-79621460D01*
X154712589Y-79514284D01*
X154682933Y-79502000D01*
X154712590Y-79489716D01*
X154819766Y-79382539D01*
X154877770Y-79242505D01*
X154877770Y-79090934D01*
X154877770Y-78693900D01*
X157158380Y-78693900D01*
X157690690Y-79226210D01*
X157855497Y-79336331D01*
X158004512Y-79365971D01*
X157892903Y-79477582D01*
X157796230Y-79710971D01*
X157796230Y-79851250D01*
X157954980Y-80010000D01*
X159004000Y-80010000D01*
X159004000Y-79990000D01*
X159258000Y-79990000D01*
X159258000Y-80010000D01*
X160307020Y-80010000D01*
X160465770Y-79851250D01*
X160465770Y-79710971D01*
X160369097Y-79477582D01*
X160190469Y-79298953D01*
X160188693Y-79298217D01*
X160211770Y-79242505D01*
X160211770Y-79090934D01*
X160211770Y-78491494D01*
X160153766Y-78351460D01*
X160046589Y-78244284D01*
X159906555Y-78186280D01*
X159754984Y-78186280D01*
X158355444Y-78186280D01*
X158215410Y-78244284D01*
X158180507Y-78279187D01*
X157728010Y-77826690D01*
X157563203Y-77716569D01*
X157368800Y-77677900D01*
X152678000Y-77677900D01*
X152483597Y-77716569D01*
X152318790Y-77826690D01*
X151449000Y-78696480D01*
X150368000Y-79777480D01*
X150368000Y-78727714D01*
X150309996Y-78587680D01*
X150241002Y-78518686D01*
X150241002Y-78377375D01*
X150447329Y-78500716D01*
X150507550Y-78489980D01*
X150968185Y-78241790D01*
X151298778Y-77836215D01*
X151449000Y-77335000D01*
X151449000Y-76835000D01*
X150241000Y-76835000D01*
X150241000Y-76855000D01*
X149987000Y-76855000D01*
X149987000Y-76835000D01*
X148779000Y-76835000D01*
X148779000Y-77335000D01*
X148929222Y-77836215D01*
X149259815Y-78241790D01*
X149595208Y-78422500D01*
X149022214Y-78422500D01*
X148882180Y-78480504D01*
X148775004Y-78587681D01*
X148717000Y-78727715D01*
X148717000Y-78879286D01*
X148717000Y-79799579D01*
X148463000Y-80053579D01*
X148463000Y-78727714D01*
X148404996Y-78587680D01*
X148297819Y-78480504D01*
X148157785Y-78422500D01*
X148082000Y-78422500D01*
X148082000Y-78174665D01*
X148338382Y-78003356D01*
X148572714Y-77652655D01*
X148655000Y-77238974D01*
X148655000Y-76177026D01*
X148572714Y-75763345D01*
X148338382Y-75412644D01*
X148261091Y-75361000D01*
X149107558Y-75361000D01*
X148929222Y-75579785D01*
X148779000Y-76081000D01*
X148779000Y-76581000D01*
X149987000Y-76581000D01*
X149987000Y-76561000D01*
X150241000Y-76561000D01*
X150241000Y-76581000D01*
X151449000Y-76581000D01*
X151449000Y-76081000D01*
X151298778Y-75579785D01*
X151120441Y-75361000D01*
X167209000Y-75361000D01*
X167209000Y-101804000D01*
X167209000Y-101804000D01*
G37*
X167209000Y-101804000D02*
X155257500Y-101804000D01*
X155257500Y-98551309D01*
X155257500Y-98266250D01*
X155098750Y-98107500D01*
X154051000Y-98107500D01*
X154051000Y-98901250D01*
X154209750Y-99060000D01*
X154496191Y-99060000D01*
X154748810Y-99060000D01*
X154982199Y-98963327D01*
X155160827Y-98784698D01*
X155257500Y-98551309D01*
X155257500Y-101804000D01*
X153797000Y-101804000D01*
X153797000Y-98901250D01*
X153797000Y-98107500D01*
X152749250Y-98107500D01*
X152590500Y-98266250D01*
X152590500Y-98551309D01*
X152687173Y-98784698D01*
X152865801Y-98963327D01*
X153099190Y-99060000D01*
X153351809Y-99060000D01*
X153638250Y-99060000D01*
X153797000Y-98901250D01*
X153797000Y-101804000D01*
X152032921Y-101804000D01*
X152314778Y-101458215D01*
X152465000Y-100957000D01*
X152465000Y-100457000D01*
X152465000Y-100203000D01*
X152465000Y-99703000D01*
X152314778Y-99201785D01*
X151984185Y-98796210D01*
X151523550Y-98548020D01*
X151463329Y-98537284D01*
X151257000Y-98660626D01*
X151257000Y-100203000D01*
X152465000Y-100203000D01*
X152465000Y-100457000D01*
X151257000Y-100457000D01*
X151257000Y-100477000D01*
X151003000Y-100477000D01*
X151003000Y-100457000D01*
X151003000Y-100203000D01*
X151003000Y-98660626D01*
X150796671Y-98537284D01*
X150736450Y-98548020D01*
X150275815Y-98796210D01*
X149945222Y-99201785D01*
X149795000Y-99703000D01*
X149795000Y-100203000D01*
X151003000Y-100203000D01*
X151003000Y-100457000D01*
X149795000Y-100457000D01*
X149795000Y-100957000D01*
X149945222Y-101458215D01*
X150227078Y-101804000D01*
X149087023Y-101804000D01*
X149354382Y-101625356D01*
X149588714Y-101274655D01*
X149671000Y-100860974D01*
X149671000Y-99799026D01*
X149588714Y-99385345D01*
X149354382Y-99034644D01*
X149113637Y-98873782D01*
X149457210Y-98530211D01*
X149457210Y-98530210D01*
X149530790Y-98420090D01*
X149567330Y-98365404D01*
X149567331Y-98365403D01*
X149605999Y-98171000D01*
X149606000Y-98171000D01*
X149606000Y-97853500D01*
X149681786Y-97853500D01*
X150570786Y-97853500D01*
X150710820Y-97795496D01*
X150817996Y-97688319D01*
X150876000Y-97548285D01*
X150876000Y-97396714D01*
X150876000Y-97282000D01*
X152272818Y-97282000D01*
X152273000Y-97282000D01*
X152370594Y-97262587D01*
X152467236Y-97243400D01*
X152467312Y-97243349D01*
X152467403Y-97243331D01*
X152548810Y-97188936D01*
X152632082Y-97133339D01*
X152632210Y-97133210D01*
X152966172Y-96799487D01*
X153009681Y-96842996D01*
X153149715Y-96901000D01*
X153099190Y-96901000D01*
X152865801Y-96997673D01*
X152687173Y-97176302D01*
X152590500Y-97409691D01*
X152590500Y-97694750D01*
X152749250Y-97853500D01*
X153797000Y-97853500D01*
X153797000Y-97059750D01*
X153638250Y-96901000D01*
X154209750Y-96901000D01*
X154051000Y-97059750D01*
X154051000Y-97853500D01*
X155098750Y-97853500D01*
X155257500Y-97694750D01*
X155257500Y-97409691D01*
X155160827Y-97176302D01*
X154982199Y-96997673D01*
X154748810Y-96901000D01*
X154698286Y-96901000D01*
X154838320Y-96842996D01*
X154945496Y-96735819D01*
X155003500Y-96595785D01*
X155003500Y-96444214D01*
X155003500Y-95555214D01*
X154945496Y-95415180D01*
X154838319Y-95308004D01*
X154698285Y-95250000D01*
X154546714Y-95250000D01*
X153149714Y-95250000D01*
X153009680Y-95308004D01*
X152902504Y-95415181D01*
X152844500Y-95555215D01*
X152844500Y-95592850D01*
X152777765Y-95606100D01*
X152777689Y-95606150D01*
X152777597Y-95606169D01*
X152695548Y-95660992D01*
X152612918Y-95716161D01*
X152062685Y-96266000D01*
X150876000Y-96266000D01*
X150876000Y-95999714D01*
X150817996Y-95859680D01*
X150710819Y-95752504D01*
X150570785Y-95694500D01*
X150558000Y-95694500D01*
X150558000Y-95650989D01*
X151489127Y-94720294D01*
X151489161Y-94720242D01*
X151489210Y-94720210D01*
X151543240Y-94639347D01*
X151599286Y-94555512D01*
X151599297Y-94555452D01*
X151599331Y-94555403D01*
X151612738Y-94488000D01*
X151904286Y-94488000D01*
X152044320Y-94429996D01*
X152151496Y-94322819D01*
X152209500Y-94182785D01*
X152209500Y-94031214D01*
X152209500Y-93142214D01*
X152151496Y-93002180D01*
X152044319Y-92895004D01*
X151904285Y-92837000D01*
X151752714Y-92837000D01*
X150355714Y-92837000D01*
X150215680Y-92895004D01*
X150108504Y-93002181D01*
X150050500Y-93142215D01*
X150050500Y-93293786D01*
X150050500Y-94182786D01*
X150108504Y-94322820D01*
X150215681Y-94429996D01*
X150305262Y-94467101D01*
X149690873Y-95081207D01*
X149690839Y-95081256D01*
X149690790Y-95081290D01*
X149636082Y-95163164D01*
X149580714Y-95245988D01*
X149580702Y-95246047D01*
X149580669Y-95246097D01*
X149561420Y-95342867D01*
X149548397Y-95408259D01*
X149457210Y-95271790D01*
X148211420Y-94026000D01*
X148777786Y-94026000D01*
X148917820Y-93967996D01*
X149024996Y-93860819D01*
X149083000Y-93720785D01*
X149083000Y-93569214D01*
X149083000Y-92969214D01*
X149024996Y-92829180D01*
X148917819Y-92722004D01*
X148888839Y-92710000D01*
X148917820Y-92697996D01*
X149024996Y-92590819D01*
X149083000Y-92450785D01*
X149083000Y-92299214D01*
X149083000Y-91699214D01*
X149024996Y-91559180D01*
X148917819Y-91452004D01*
X148888839Y-91440000D01*
X148917820Y-91427996D01*
X149024996Y-91320819D01*
X149083000Y-91180785D01*
X149083000Y-91029214D01*
X149083000Y-90429214D01*
X149024996Y-90289180D01*
X148917819Y-90182004D01*
X148888839Y-90170000D01*
X148917820Y-90157996D01*
X148963043Y-90112772D01*
X149066397Y-90181831D01*
X149260800Y-90220500D01*
X151528997Y-90220500D01*
X151720081Y-90411917D01*
X152023377Y-90537857D01*
X152351782Y-90538143D01*
X152614097Y-90429756D01*
X152648504Y-90512820D01*
X152755681Y-90619996D01*
X152895715Y-90678000D01*
X153047286Y-90678000D01*
X154444286Y-90678000D01*
X154584320Y-90619996D01*
X154627808Y-90576507D01*
X155088790Y-91037210D01*
X155088899Y-91037319D01*
X155171646Y-91092573D01*
X155253597Y-91147331D01*
X155253673Y-91147346D01*
X155253739Y-91147390D01*
X155351139Y-91166733D01*
X155448000Y-91186000D01*
X155448154Y-91186000D01*
X155710764Y-91186000D01*
X155714004Y-91193820D01*
X155821181Y-91300996D01*
X155850160Y-91312999D01*
X155821180Y-91325004D01*
X155714004Y-91432181D01*
X155656000Y-91572215D01*
X155656000Y-91723786D01*
X155656000Y-92323786D01*
X155714004Y-92463820D01*
X155821181Y-92570996D01*
X155850160Y-92582999D01*
X155821180Y-92595004D01*
X155714004Y-92702181D01*
X155710765Y-92710000D01*
X155448000Y-92710000D01*
X155447854Y-92710028D01*
X155447714Y-92710001D01*
X155351725Y-92729150D01*
X155253597Y-92748669D01*
X155253475Y-92748750D01*
X155253332Y-92748779D01*
X155170521Y-92804178D01*
X155088790Y-92858790D01*
X155088710Y-92858909D01*
X155088587Y-92858992D01*
X154793412Y-93154500D01*
X154749500Y-93154500D01*
X154749500Y-93142214D01*
X154749500Y-92277785D01*
X154749500Y-92126214D01*
X154749500Y-91237214D01*
X154691496Y-91097180D01*
X154584319Y-90990004D01*
X154444285Y-90932000D01*
X154292714Y-90932000D01*
X152895714Y-90932000D01*
X152755680Y-90990004D01*
X152648504Y-91097181D01*
X152590500Y-91237215D01*
X152590500Y-91249500D01*
X152209500Y-91249500D01*
X152209500Y-91237214D01*
X152151496Y-91097180D01*
X152044319Y-90990004D01*
X151904285Y-90932000D01*
X151752714Y-90932000D01*
X150355714Y-90932000D01*
X150215680Y-90990004D01*
X150108504Y-91097181D01*
X150050500Y-91237215D01*
X150050500Y-91388786D01*
X150050500Y-92277786D01*
X150108504Y-92417820D01*
X150215681Y-92524996D01*
X150355715Y-92583000D01*
X150507286Y-92583000D01*
X151904286Y-92583000D01*
X152044320Y-92524996D01*
X152151496Y-92417819D01*
X152209500Y-92277785D01*
X152209500Y-92265500D01*
X152590500Y-92265500D01*
X152590500Y-92277786D01*
X152648504Y-92417820D01*
X152755681Y-92524996D01*
X152895715Y-92583000D01*
X153047286Y-92583000D01*
X154444286Y-92583000D01*
X154584320Y-92524996D01*
X154691496Y-92417819D01*
X154749500Y-92277785D01*
X154749500Y-93142214D01*
X154691496Y-93002180D01*
X154584319Y-92895004D01*
X154444285Y-92837000D01*
X154292714Y-92837000D01*
X152895714Y-92837000D01*
X152755680Y-92895004D01*
X152648504Y-93002181D01*
X152590500Y-93142215D01*
X152590500Y-93293786D01*
X152590500Y-94182786D01*
X152648504Y-94322820D01*
X152755681Y-94429996D01*
X152895715Y-94488000D01*
X153047286Y-94488000D01*
X154444286Y-94488000D01*
X154584320Y-94429996D01*
X154691496Y-94322819D01*
X154749500Y-94182785D01*
X154749500Y-94170500D01*
X155004000Y-94170500D01*
X155004142Y-94170471D01*
X155004286Y-94170500D01*
X155101136Y-94151178D01*
X155198403Y-94131831D01*
X155198524Y-94131749D01*
X155198668Y-94131721D01*
X155281065Y-94076597D01*
X155363210Y-94021710D01*
X155363290Y-94021589D01*
X155363412Y-94021508D01*
X155658587Y-93726000D01*
X155710764Y-93726000D01*
X155714004Y-93733820D01*
X155821181Y-93840996D01*
X155961215Y-93899000D01*
X156112786Y-93899000D01*
X156304000Y-93899000D01*
X156304000Y-94963000D01*
X156342669Y-95157403D01*
X156452790Y-95322210D01*
X157501790Y-96371210D01*
X157666597Y-96481331D01*
X157734000Y-96494738D01*
X157734000Y-96786286D01*
X157792004Y-96926320D01*
X157899181Y-97033496D01*
X158039215Y-97091500D01*
X158052000Y-97091500D01*
X158052000Y-97152986D01*
X158051500Y-97155500D01*
X158051500Y-97218500D01*
X158039214Y-97218500D01*
X157899180Y-97276504D01*
X157792004Y-97383681D01*
X157734000Y-97523715D01*
X157734000Y-97675286D01*
X157734000Y-99072286D01*
X157792004Y-99212320D01*
X157899181Y-99319496D01*
X158039215Y-99377500D01*
X158190786Y-99377500D01*
X159079786Y-99377500D01*
X159219820Y-99319496D01*
X159326996Y-99212319D01*
X159385000Y-99072285D01*
X159385000Y-98920714D01*
X159385000Y-97523714D01*
X159326996Y-97383680D01*
X159219819Y-97276504D01*
X159079785Y-97218500D01*
X159068000Y-97218500D01*
X159068000Y-97155000D01*
X159068000Y-97091500D01*
X159079786Y-97091500D01*
X159219820Y-97033496D01*
X159326996Y-96926319D01*
X159385000Y-96786285D01*
X159385000Y-96634714D01*
X159385000Y-95237714D01*
X159326996Y-95097680D01*
X159219819Y-94990504D01*
X159079785Y-94932500D01*
X158928214Y-94932500D01*
X158039214Y-94932500D01*
X157899180Y-94990504D01*
X157792004Y-95097681D01*
X157754834Y-95187414D01*
X157320000Y-94752580D01*
X157320000Y-93899000D01*
X157662786Y-93899000D01*
X157802820Y-93840996D01*
X157909996Y-93733819D01*
X157968000Y-93593785D01*
X157968000Y-93442214D01*
X157968000Y-92842214D01*
X157909996Y-92702180D01*
X157802819Y-92595004D01*
X157773839Y-92583000D01*
X157802820Y-92570996D01*
X157909996Y-92463819D01*
X157968000Y-92323785D01*
X157968000Y-92172214D01*
X157968000Y-91572214D01*
X157909996Y-91432180D01*
X157802819Y-91325004D01*
X157773839Y-91313000D01*
X157802820Y-91300996D01*
X157909996Y-91193819D01*
X157968000Y-91053785D01*
X157968000Y-90902214D01*
X157968000Y-90302214D01*
X157909996Y-90162180D01*
X157881756Y-90133940D01*
X158121177Y-90233357D01*
X158449582Y-90233643D01*
X158753098Y-90108233D01*
X158764658Y-90096692D01*
X158788669Y-90217403D01*
X158898790Y-90382210D01*
X160823790Y-92307210D01*
X160988596Y-92417331D01*
X160988597Y-92417331D01*
X161104278Y-92440341D01*
X161114004Y-92463820D01*
X161221181Y-92570996D01*
X161250160Y-92582999D01*
X161221180Y-92595004D01*
X161114004Y-92702181D01*
X161056000Y-92842215D01*
X161056000Y-92993786D01*
X161056000Y-93593786D01*
X161114004Y-93733820D01*
X161221181Y-93840996D01*
X161361215Y-93899000D01*
X161512786Y-93899000D01*
X161704000Y-93899000D01*
X161704000Y-94752580D01*
X161269165Y-95187414D01*
X161231996Y-95097680D01*
X161124819Y-94990504D01*
X160984785Y-94932500D01*
X160833214Y-94932500D01*
X159944214Y-94932500D01*
X159804180Y-94990504D01*
X159697004Y-95097681D01*
X159639000Y-95237715D01*
X159639000Y-95389286D01*
X159639000Y-96786286D01*
X159697004Y-96926320D01*
X159804181Y-97033496D01*
X159944215Y-97091500D01*
X159956000Y-97091500D01*
X159956000Y-97155000D01*
X159956000Y-97218500D01*
X159944214Y-97218500D01*
X159804180Y-97276504D01*
X159697004Y-97383681D01*
X159639000Y-97523715D01*
X159639000Y-97675286D01*
X159639000Y-99072286D01*
X159697004Y-99212320D01*
X159804181Y-99319496D01*
X159944215Y-99377500D01*
X160095786Y-99377500D01*
X160984786Y-99377500D01*
X161124820Y-99319496D01*
X161231996Y-99212319D01*
X161290000Y-99072285D01*
X161290000Y-98920714D01*
X161290000Y-97523714D01*
X161231996Y-97383680D01*
X161124819Y-97276504D01*
X160984785Y-97218500D01*
X160972500Y-97218500D01*
X160972500Y-97155500D01*
X160972000Y-97152986D01*
X160972000Y-97091500D01*
X160984786Y-97091500D01*
X161124820Y-97033496D01*
X161231996Y-96926319D01*
X161290000Y-96786285D01*
X161290000Y-96634714D01*
X161290000Y-96494738D01*
X161357403Y-96481331D01*
X161522210Y-96371210D01*
X162571210Y-95322210D01*
X162681331Y-95157403D01*
X162720000Y-94963000D01*
X162720000Y-93899000D01*
X163062786Y-93899000D01*
X163202820Y-93840996D01*
X163309996Y-93733819D01*
X163313234Y-93726000D01*
X164057052Y-93726000D01*
X164058644Y-93728382D01*
X164409345Y-93962714D01*
X164823026Y-94045000D01*
X165884974Y-94045000D01*
X166298655Y-93962714D01*
X166649356Y-93728382D01*
X166883688Y-93377681D01*
X166965974Y-92964000D01*
X166883688Y-92550319D01*
X166649356Y-92199618D01*
X166298655Y-91965286D01*
X165884974Y-91883000D01*
X164823026Y-91883000D01*
X164409345Y-91965286D01*
X164058644Y-92199618D01*
X163824312Y-92550319D01*
X163792549Y-92710000D01*
X163313235Y-92710000D01*
X163309996Y-92702180D01*
X163202819Y-92595004D01*
X163173839Y-92583000D01*
X163202820Y-92570996D01*
X163309996Y-92463819D01*
X163368000Y-92323785D01*
X163368000Y-92172214D01*
X163368000Y-91572214D01*
X163345121Y-91516980D01*
X163346699Y-91516327D01*
X163525327Y-91337698D01*
X163622000Y-91104309D01*
X163622000Y-90963750D01*
X163562253Y-90904003D01*
X163703000Y-90932000D01*
X163887334Y-90932000D01*
X164058644Y-91188382D01*
X164409345Y-91422714D01*
X164823026Y-91505000D01*
X165884974Y-91505000D01*
X166298655Y-91422714D01*
X166649356Y-91188382D01*
X166883688Y-90837681D01*
X166965974Y-90424000D01*
X166883688Y-90010319D01*
X166649356Y-89659618D01*
X166298655Y-89425286D01*
X165884974Y-89343000D01*
X164823026Y-89343000D01*
X164409345Y-89425286D01*
X164058644Y-89659618D01*
X163897782Y-89900362D01*
X163368000Y-89370580D01*
X163368000Y-89032214D01*
X163309996Y-88892180D01*
X163202819Y-88785004D01*
X163062785Y-88727000D01*
X162911214Y-88727000D01*
X161361214Y-88727000D01*
X161221180Y-88785004D01*
X161114004Y-88892181D01*
X161056000Y-89032215D01*
X161056000Y-89183786D01*
X161056000Y-89783786D01*
X161078878Y-89839019D01*
X161077301Y-89839673D01*
X160898673Y-90018302D01*
X160802000Y-90251691D01*
X160802000Y-90392250D01*
X160960750Y-90551000D01*
X162085000Y-90551000D01*
X162085000Y-90531000D01*
X162339000Y-90531000D01*
X162339000Y-90551000D01*
X162359000Y-90551000D01*
X162359000Y-90805000D01*
X162339000Y-90805000D01*
X162339000Y-90825000D01*
X162085000Y-90825000D01*
X162085000Y-90805000D01*
X160960750Y-90805000D01*
X160859585Y-90906165D01*
X159766000Y-89812580D01*
X159766000Y-87947400D01*
X159766000Y-87884000D01*
X160032286Y-87884000D01*
X160172320Y-87825996D01*
X160279496Y-87718819D01*
X160337500Y-87578785D01*
X160337500Y-87427214D01*
X160337500Y-86538214D01*
X160279496Y-86398180D01*
X160172319Y-86291004D01*
X160032285Y-86233000D01*
X160082810Y-86233000D01*
X160316199Y-86136327D01*
X160494827Y-85957698D01*
X160591500Y-85724309D01*
X160591500Y-85439250D01*
X160591500Y-84867750D01*
X160591500Y-84582691D01*
X160494827Y-84349302D01*
X160316199Y-84170673D01*
X160082810Y-84074000D01*
X159830191Y-84074000D01*
X159543750Y-84074000D01*
X159385000Y-84232750D01*
X159385000Y-85026500D01*
X160432750Y-85026500D01*
X160591500Y-84867750D01*
X160591500Y-85439250D01*
X160432750Y-85280500D01*
X159385000Y-85280500D01*
X159385000Y-85300500D01*
X159131000Y-85300500D01*
X159131000Y-85280500D01*
X159111000Y-85280500D01*
X159111000Y-85026500D01*
X159131000Y-85026500D01*
X159131000Y-84232750D01*
X158972250Y-84074000D01*
X158685809Y-84074000D01*
X158676300Y-84074000D01*
X158676300Y-83357720D01*
X159906556Y-83357720D01*
X160046590Y-83299716D01*
X160153766Y-83192539D01*
X160211770Y-83052505D01*
X160211770Y-82900934D01*
X160211770Y-82301494D01*
X160153766Y-82161460D01*
X160046589Y-82054284D01*
X160016933Y-82042000D01*
X160046590Y-82029716D01*
X160153766Y-81922539D01*
X160156888Y-81915000D01*
X160972500Y-81915000D01*
X160972500Y-82244786D01*
X161030504Y-82384820D01*
X161137681Y-82491996D01*
X161277715Y-82550000D01*
X161429286Y-82550000D01*
X162826286Y-82550000D01*
X162966320Y-82491996D01*
X163073496Y-82384819D01*
X163131500Y-82244785D01*
X163131500Y-82093214D01*
X163131500Y-81204214D01*
X163073496Y-81064180D01*
X162966319Y-80957004D01*
X162826285Y-80899000D01*
X162876810Y-80899000D01*
X163110199Y-80802327D01*
X163288827Y-80623698D01*
X163385500Y-80390309D01*
X163385500Y-80105250D01*
X163385500Y-79533750D01*
X163385500Y-79248691D01*
X163288827Y-79015302D01*
X163110199Y-78836673D01*
X162876810Y-78740000D01*
X162624191Y-78740000D01*
X162337750Y-78740000D01*
X162179000Y-78898750D01*
X162179000Y-79692500D01*
X163226750Y-79692500D01*
X163385500Y-79533750D01*
X163385500Y-80105250D01*
X163226750Y-79946500D01*
X162179000Y-79946500D01*
X162179000Y-79966500D01*
X161925000Y-79966500D01*
X161925000Y-79946500D01*
X161925000Y-79692500D01*
X161925000Y-78898750D01*
X161766250Y-78740000D01*
X161479809Y-78740000D01*
X161227190Y-78740000D01*
X160993801Y-78836673D01*
X160815173Y-79015302D01*
X160718500Y-79248691D01*
X160718500Y-79533750D01*
X160877250Y-79692500D01*
X161925000Y-79692500D01*
X161925000Y-79946500D01*
X160877250Y-79946500D01*
X160718500Y-80105250D01*
X160718500Y-80390309D01*
X160815173Y-80623698D01*
X160993801Y-80802327D01*
X161227190Y-80899000D01*
X160266515Y-80899000D01*
X160369097Y-80796418D01*
X160465770Y-80563029D01*
X160465770Y-80422750D01*
X160307020Y-80264000D01*
X159258000Y-80264000D01*
X159258000Y-80284000D01*
X159004000Y-80284000D01*
X159004000Y-80264000D01*
X157954980Y-80264000D01*
X157796230Y-80422750D01*
X157796230Y-80563029D01*
X157892903Y-80796418D01*
X157995484Y-80899000D01*
X154878100Y-80899000D01*
X154822889Y-80899000D01*
X154819766Y-80891460D01*
X154712589Y-80784284D01*
X154682933Y-80772000D01*
X154712590Y-80759716D01*
X154819766Y-80652539D01*
X154877770Y-80512505D01*
X154877770Y-80360934D01*
X154877770Y-79761494D01*
X154819766Y-79621460D01*
X154712589Y-79514284D01*
X154682933Y-79502000D01*
X154712590Y-79489716D01*
X154819766Y-79382539D01*
X154877770Y-79242505D01*
X154877770Y-79090934D01*
X154877770Y-78693900D01*
X157158380Y-78693900D01*
X157690690Y-79226210D01*
X157855497Y-79336331D01*
X158004512Y-79365971D01*
X157892903Y-79477582D01*
X157796230Y-79710971D01*
X157796230Y-79851250D01*
X157954980Y-80010000D01*
X159004000Y-80010000D01*
X159004000Y-79990000D01*
X159258000Y-79990000D01*
X159258000Y-80010000D01*
X160307020Y-80010000D01*
X160465770Y-79851250D01*
X160465770Y-79710971D01*
X160369097Y-79477582D01*
X160190469Y-79298953D01*
X160188693Y-79298217D01*
X160211770Y-79242505D01*
X160211770Y-79090934D01*
X160211770Y-78491494D01*
X160153766Y-78351460D01*
X160046589Y-78244284D01*
X159906555Y-78186280D01*
X159754984Y-78186280D01*
X158355444Y-78186280D01*
X158215410Y-78244284D01*
X158180507Y-78279187D01*
X157728010Y-77826690D01*
X157563203Y-77716569D01*
X157368800Y-77677900D01*
X152678000Y-77677900D01*
X152483597Y-77716569D01*
X152318790Y-77826690D01*
X151449000Y-78696480D01*
X150368000Y-79777480D01*
X150368000Y-78727714D01*
X150309996Y-78587680D01*
X150241002Y-78518686D01*
X150241002Y-78377375D01*
X150447329Y-78500716D01*
X150507550Y-78489980D01*
X150968185Y-78241790D01*
X151298778Y-77836215D01*
X151449000Y-77335000D01*
X151449000Y-76835000D01*
X150241000Y-76835000D01*
X150241000Y-76855000D01*
X149987000Y-76855000D01*
X149987000Y-76835000D01*
X148779000Y-76835000D01*
X148779000Y-77335000D01*
X148929222Y-77836215D01*
X149259815Y-78241790D01*
X149595208Y-78422500D01*
X149022214Y-78422500D01*
X148882180Y-78480504D01*
X148775004Y-78587681D01*
X148717000Y-78727715D01*
X148717000Y-78879286D01*
X148717000Y-79799579D01*
X148463000Y-80053579D01*
X148463000Y-78727714D01*
X148404996Y-78587680D01*
X148297819Y-78480504D01*
X148157785Y-78422500D01*
X148082000Y-78422500D01*
X148082000Y-78174665D01*
X148338382Y-78003356D01*
X148572714Y-77652655D01*
X148655000Y-77238974D01*
X148655000Y-76177026D01*
X148572714Y-75763345D01*
X148338382Y-75412644D01*
X148261091Y-75361000D01*
X149107558Y-75361000D01*
X148929222Y-75579785D01*
X148779000Y-76081000D01*
X148779000Y-76581000D01*
X149987000Y-76581000D01*
X149987000Y-76561000D01*
X150241000Y-76561000D01*
X150241000Y-76581000D01*
X151449000Y-76581000D01*
X151449000Y-76081000D01*
X151298778Y-75579785D01*
X151120441Y-75361000D01*
X167209000Y-75361000D01*
X167209000Y-101804000D01*
M02*
