%FSLAX46Y46*%
G04 Gerber Fmt 4.6, Leading zero omitted, Abs format (unit mm)*
G04 Created by KiCad (PCBNEW (2014-10-30 BZR 5240)-product) date jeu. 06 nov. 2014 00:10:11 CET*
%MOMM*%
G01*
G04 APERTURE LIST*
%ADD10C,0.100000*%
%ADD11C,0.200000*%
%ADD12R,0.889000X1.397000*%
%ADD13R,1.397000X0.889000*%
%ADD14R,2.000000X0.600000*%
%ADD15O,1.400000X2.400000*%
%ADD16R,3.560000X1.400000*%
%ADD17O,2.400000X1.400000*%
%ADD18R,0.800100X1.000760*%
%ADD19R,0.300000X1.600000*%
%ADD20O,1.500000X2.500000*%
%ADD21R,1.550000X0.600000*%
%ADD22R,1.399540X0.599440*%
G04 APERTURE END LIST*
D10*
D11*
X166486619Y-88438344D02*
X165386619Y-88300844D01*
X166172333Y-88032393D01*
X165386619Y-87567511D01*
X166486619Y-87705011D01*
X166486619Y-86709773D02*
X165910429Y-86637750D01*
X165805667Y-86677035D01*
X165753286Y-86775250D01*
X165753286Y-86984773D01*
X165805667Y-87096082D01*
X166434238Y-86703226D02*
X166486619Y-86814535D01*
X166486619Y-87076439D01*
X166434238Y-87174654D01*
X166329476Y-87213939D01*
X166224714Y-87200844D01*
X166119952Y-87135368D01*
X166067571Y-87024058D01*
X166067571Y-86762154D01*
X166015190Y-86650845D01*
X166486619Y-85714535D02*
X165386619Y-85577035D01*
X166434238Y-85707988D02*
X166486619Y-85819297D01*
X166486619Y-86028820D01*
X166434238Y-86127035D01*
X166381857Y-86172868D01*
X166277095Y-86212154D01*
X165962810Y-86172868D01*
X165858048Y-86107392D01*
X165805667Y-86048463D01*
X165753286Y-85937154D01*
X165753286Y-85727631D01*
X165805667Y-85629416D01*
X166434238Y-84765131D02*
X166486619Y-84876440D01*
X166486619Y-85085963D01*
X166434238Y-85184178D01*
X166329476Y-85223463D01*
X165910429Y-85171083D01*
X165805667Y-85105606D01*
X165753286Y-84994297D01*
X165753286Y-84784774D01*
X165805667Y-84686559D01*
X165910429Y-84647274D01*
X166015190Y-84660369D01*
X166119952Y-85197273D01*
X165386619Y-83377035D02*
X166486619Y-83252630D01*
X165700905Y-82944893D01*
X166486619Y-82833583D01*
X165386619Y-82434178D01*
X166486619Y-82152630D02*
X165753286Y-82060964D01*
X165386619Y-82015130D02*
X165439000Y-82074059D01*
X165491381Y-82028226D01*
X165439000Y-81969297D01*
X165386619Y-82015130D01*
X165491381Y-82028226D01*
X165753286Y-81694297D02*
X165753286Y-81275249D01*
X165386619Y-81491320D02*
X166329476Y-81609177D01*
X166434238Y-81569892D01*
X166486619Y-81471677D01*
X166486619Y-81366915D01*
X166486619Y-81000249D02*
X165386619Y-80862749D01*
X166486619Y-80528821D02*
X165910429Y-80456798D01*
X165805667Y-80496083D01*
X165753286Y-80594298D01*
X165753286Y-80751440D01*
X165805667Y-80862749D01*
X165858048Y-80921678D01*
X166486619Y-78643107D02*
X166486619Y-79166916D01*
X165386619Y-79029416D01*
X166486619Y-78119297D02*
X166434238Y-78217512D01*
X166381857Y-78263345D01*
X166277095Y-78302631D01*
X165962810Y-78263345D01*
X165858048Y-78197869D01*
X165805667Y-78138940D01*
X165753286Y-78027631D01*
X165753286Y-77870489D01*
X165805667Y-77772274D01*
X165858048Y-77726441D01*
X165962810Y-77687155D01*
X166277095Y-77726441D01*
X166381857Y-77791917D01*
X166434238Y-77850846D01*
X166486619Y-77962155D01*
X166486619Y-78119297D01*
X165753286Y-77294298D02*
X166486619Y-77124059D01*
X165753286Y-76770489D01*
X166434238Y-76017513D02*
X166486619Y-76128822D01*
X166486619Y-76338345D01*
X166434238Y-76436560D01*
X166329476Y-76475845D01*
X165910429Y-76423465D01*
X165805667Y-76357988D01*
X165753286Y-76246679D01*
X165753286Y-76037156D01*
X165805667Y-75938941D01*
X165910429Y-75899656D01*
X166015190Y-75912751D01*
X166119952Y-76449655D01*
D10*
G36*
X135101966Y-77926739D02*
X135098105Y-78030016D01*
X135084239Y-78126831D01*
X135060168Y-78218107D01*
X135025691Y-78304768D01*
X134980609Y-78387737D01*
X134967526Y-78408210D01*
X134936111Y-78453499D01*
X134902617Y-78496691D01*
X134866107Y-78538573D01*
X134825644Y-78579927D01*
X134780289Y-78621541D01*
X134729105Y-78664197D01*
X134671154Y-78708682D01*
X134605499Y-78755780D01*
X134531202Y-78806277D01*
X134447326Y-78860956D01*
X134362825Y-78914423D01*
X134296709Y-78956145D01*
X134239511Y-78993110D01*
X134189088Y-79026803D01*
X134143299Y-79058708D01*
X134100001Y-79090311D01*
X134057051Y-79123097D01*
X134023100Y-79149897D01*
X133948540Y-79211780D01*
X133875662Y-79276716D01*
X133805550Y-79343508D01*
X133739287Y-79410963D01*
X133677957Y-79477883D01*
X133622643Y-79543074D01*
X133574430Y-79605341D01*
X133534399Y-79663487D01*
X133503635Y-79716318D01*
X133496300Y-79731111D01*
X133478359Y-79769047D01*
X133458597Y-79726816D01*
X133427961Y-79669925D01*
X133387346Y-79608087D01*
X133337870Y-79542527D01*
X133280650Y-79474472D01*
X133216804Y-79405149D01*
X133147451Y-79335786D01*
X133073708Y-79267609D01*
X132996694Y-79201845D01*
X132937250Y-79154683D01*
X132901962Y-79128262D01*
X132864001Y-79101209D01*
X132821907Y-79072564D01*
X132774219Y-79041367D01*
X132719477Y-79006660D01*
X132656221Y-78967483D01*
X132600700Y-78933611D01*
X132498015Y-78870080D01*
X132406274Y-78810607D01*
X132324660Y-78754449D01*
X132252359Y-78700862D01*
X132188556Y-78649103D01*
X132132437Y-78598428D01*
X132083187Y-78548094D01*
X132039990Y-78497358D01*
X132002032Y-78445476D01*
X131968499Y-78391705D01*
X131938575Y-78335301D01*
X131933552Y-78324901D01*
X131899786Y-78244152D01*
X131875445Y-78162497D01*
X131860070Y-78077535D01*
X131853206Y-77986861D01*
X131853665Y-77904975D01*
X131863480Y-77778250D01*
X131883143Y-77658915D01*
X131912579Y-77547154D01*
X131951715Y-77443152D01*
X132000478Y-77347094D01*
X132058795Y-77259164D01*
X132126592Y-77179547D01*
X132151088Y-77155077D01*
X132226589Y-77090945D01*
X132307113Y-77038210D01*
X132391830Y-76996996D01*
X132479909Y-76967430D01*
X132570521Y-76949636D01*
X132662835Y-76943740D01*
X132756020Y-76949868D01*
X132849245Y-76968146D01*
X132941682Y-76998699D01*
X133003072Y-77026254D01*
X133090819Y-77077033D01*
X133173348Y-77139109D01*
X133250208Y-77212010D01*
X133320949Y-77295261D01*
X133385118Y-77388390D01*
X133438429Y-77483302D01*
X133476569Y-77558453D01*
X133508618Y-77494433D01*
X133564065Y-77395162D01*
X133626287Y-77305010D01*
X133694539Y-77224995D01*
X133735660Y-77184493D01*
X133815196Y-77118914D01*
X133898954Y-77064397D01*
X133986060Y-77020978D01*
X134075639Y-76988691D01*
X134166818Y-76967573D01*
X134258722Y-76957659D01*
X134350477Y-76958984D01*
X134441209Y-76971584D01*
X134530043Y-76995494D01*
X134616106Y-77030749D01*
X134698524Y-77077386D01*
X134776422Y-77135440D01*
X134784029Y-77141961D01*
X134853894Y-77210943D01*
X134915751Y-77289375D01*
X134969302Y-77376611D01*
X135014250Y-77472011D01*
X135050297Y-77574932D01*
X135077145Y-77684730D01*
X135094499Y-77800764D01*
X135096023Y-77816075D01*
X135101966Y-77926739D01*
X135101966Y-77926739D01*
X135101966Y-77926739D01*
G37*
X135101966Y-77926739D02*
X135098105Y-78030016D01*
X135084239Y-78126831D01*
X135060168Y-78218107D01*
X135025691Y-78304768D01*
X134980609Y-78387737D01*
X134967526Y-78408210D01*
X134936111Y-78453499D01*
X134902617Y-78496691D01*
X134866107Y-78538573D01*
X134825644Y-78579927D01*
X134780289Y-78621541D01*
X134729105Y-78664197D01*
X134671154Y-78708682D01*
X134605499Y-78755780D01*
X134531202Y-78806277D01*
X134447326Y-78860956D01*
X134362825Y-78914423D01*
X134296709Y-78956145D01*
X134239511Y-78993110D01*
X134189088Y-79026803D01*
X134143299Y-79058708D01*
X134100001Y-79090311D01*
X134057051Y-79123097D01*
X134023100Y-79149897D01*
X133948540Y-79211780D01*
X133875662Y-79276716D01*
X133805550Y-79343508D01*
X133739287Y-79410963D01*
X133677957Y-79477883D01*
X133622643Y-79543074D01*
X133574430Y-79605341D01*
X133534399Y-79663487D01*
X133503635Y-79716318D01*
X133496300Y-79731111D01*
X133478359Y-79769047D01*
X133458597Y-79726816D01*
X133427961Y-79669925D01*
X133387346Y-79608087D01*
X133337870Y-79542527D01*
X133280650Y-79474472D01*
X133216804Y-79405149D01*
X133147451Y-79335786D01*
X133073708Y-79267609D01*
X132996694Y-79201845D01*
X132937250Y-79154683D01*
X132901962Y-79128262D01*
X132864001Y-79101209D01*
X132821907Y-79072564D01*
X132774219Y-79041367D01*
X132719477Y-79006660D01*
X132656221Y-78967483D01*
X132600700Y-78933611D01*
X132498015Y-78870080D01*
X132406274Y-78810607D01*
X132324660Y-78754449D01*
X132252359Y-78700862D01*
X132188556Y-78649103D01*
X132132437Y-78598428D01*
X132083187Y-78548094D01*
X132039990Y-78497358D01*
X132002032Y-78445476D01*
X131968499Y-78391705D01*
X131938575Y-78335301D01*
X131933552Y-78324901D01*
X131899786Y-78244152D01*
X131875445Y-78162497D01*
X131860070Y-78077535D01*
X131853206Y-77986861D01*
X131853665Y-77904975D01*
X131863480Y-77778250D01*
X131883143Y-77658915D01*
X131912579Y-77547154D01*
X131951715Y-77443152D01*
X132000478Y-77347094D01*
X132058795Y-77259164D01*
X132126592Y-77179547D01*
X132151088Y-77155077D01*
X132226589Y-77090945D01*
X132307113Y-77038210D01*
X132391830Y-76996996D01*
X132479909Y-76967430D01*
X132570521Y-76949636D01*
X132662835Y-76943740D01*
X132756020Y-76949868D01*
X132849245Y-76968146D01*
X132941682Y-76998699D01*
X133003072Y-77026254D01*
X133090819Y-77077033D01*
X133173348Y-77139109D01*
X133250208Y-77212010D01*
X133320949Y-77295261D01*
X133385118Y-77388390D01*
X133438429Y-77483302D01*
X133476569Y-77558453D01*
X133508618Y-77494433D01*
X133564065Y-77395162D01*
X133626287Y-77305010D01*
X133694539Y-77224995D01*
X133735660Y-77184493D01*
X133815196Y-77118914D01*
X133898954Y-77064397D01*
X133986060Y-77020978D01*
X134075639Y-76988691D01*
X134166818Y-76967573D01*
X134258722Y-76957659D01*
X134350477Y-76958984D01*
X134441209Y-76971584D01*
X134530043Y-76995494D01*
X134616106Y-77030749D01*
X134698524Y-77077386D01*
X134776422Y-77135440D01*
X134784029Y-77141961D01*
X134853894Y-77210943D01*
X134915751Y-77289375D01*
X134969302Y-77376611D01*
X135014250Y-77472011D01*
X135050297Y-77574932D01*
X135077145Y-77684730D01*
X135094499Y-77800764D01*
X135096023Y-77816075D01*
X135101966Y-77926739D01*
X135101966Y-77926739D01*
D12*
X128206500Y-88265000D03*
X130111500Y-88265000D03*
D13*
X135509000Y-92392500D03*
X135509000Y-94297500D03*
X133223000Y-92392500D03*
X133223000Y-94297500D03*
X130937000Y-92392500D03*
X130937000Y-94297500D03*
X135890000Y-86677500D03*
X135890000Y-88582500D03*
X150622000Y-88836500D03*
X150622000Y-86931500D03*
D12*
X152336500Y-84836000D03*
X150431500Y-84836000D03*
D13*
X162052000Y-81724500D03*
X162052000Y-79819500D03*
D14*
X138302000Y-81915000D03*
X138302000Y-93345000D03*
X147702000Y-81915000D03*
X147702000Y-93345000D03*
X147702000Y-88265000D03*
X147702000Y-89535000D03*
X147702000Y-90805000D03*
X147702000Y-92075000D03*
X138302000Y-92075000D03*
X138302000Y-90805000D03*
X138302000Y-89535000D03*
X138302000Y-88265000D03*
X138302000Y-83185000D03*
X138302000Y-84455000D03*
X138302000Y-85725000D03*
X138302000Y-86995000D03*
X147702000Y-86995000D03*
X147702000Y-85725000D03*
X147702000Y-84455000D03*
X147702000Y-83185000D03*
D15*
X146050000Y-100330000D03*
X148590000Y-100330000D03*
X151130000Y-100330000D03*
D16*
X128524000Y-85915000D03*
X128524000Y-80455000D03*
D15*
X139954000Y-76708000D03*
X142494000Y-76708000D03*
X145034000Y-76708000D03*
X147574000Y-76708000D03*
X150114000Y-76708000D03*
D17*
X127508000Y-94996000D03*
X127508000Y-92456000D03*
X165354000Y-92964000D03*
X165354000Y-90424000D03*
D15*
X142875000Y-100330000D03*
X140335000Y-100330000D03*
D18*
X140335000Y-97619820D03*
X139382500Y-95420180D03*
X141287500Y-95420180D03*
D12*
X149542500Y-79502000D03*
X147637500Y-79502000D03*
D19*
X131994000Y-90430000D03*
X132644000Y-90430000D03*
X133294000Y-90430000D03*
X133944000Y-90430000D03*
X133944000Y-84830000D03*
X133294000Y-84830000D03*
X132644000Y-84830000D03*
X131994000Y-84830000D03*
D20*
X135255000Y-98425000D03*
X132715000Y-98425000D03*
X130175000Y-98425000D03*
D13*
X153924000Y-96075500D03*
X153924000Y-97980500D03*
X151130000Y-91757500D03*
X151130000Y-93662500D03*
X153670000Y-89852500D03*
X153670000Y-87947500D03*
D12*
X160464500Y-98298000D03*
X158559500Y-98298000D03*
D13*
X159258000Y-85153500D03*
X159258000Y-87058500D03*
D12*
X150050500Y-96774000D03*
X148145500Y-96774000D03*
D13*
X153670000Y-93662500D03*
X153670000Y-91757500D03*
D12*
X160464500Y-96012000D03*
X158559500Y-96012000D03*
D21*
X156812000Y-89408000D03*
X156812000Y-90678000D03*
X156812000Y-91948000D03*
X156812000Y-93218000D03*
X162212000Y-93218000D03*
X162212000Y-91948000D03*
X162212000Y-90678000D03*
X162212000Y-89408000D03*
D22*
X159131000Y-78867000D03*
X153797000Y-78867000D03*
X159131000Y-80137000D03*
X159131000Y-81407000D03*
X159131000Y-82677000D03*
X153797000Y-80137000D03*
X153797000Y-81407000D03*
X153797000Y-82677000D03*
M02*
