%FSLAX46Y46*%
G04 Gerber Fmt 4.6, Leading zero omitted, Abs format (unit mm)*
G04 Created by KiCad (PCBNEW (2014-10-30 BZR 5240)-product) date jeu. 06 nov. 2014 00:10:11 CET*
%MOMM*%
G01*
G04 APERTURE LIST*
%ADD10C,0.100000*%
%ADD11C,0.300000*%
G04 APERTURE END LIST*
D10*
D11*
X155632858Y-101507857D02*
X155632858Y-100307857D01*
X155918573Y-100307857D01*
X156090001Y-100365000D01*
X156204287Y-100479286D01*
X156261430Y-100593571D01*
X156318573Y-100822143D01*
X156318573Y-100993571D01*
X156261430Y-101222143D01*
X156204287Y-101336429D01*
X156090001Y-101450714D01*
X155918573Y-101507857D01*
X155632858Y-101507857D01*
X157004287Y-101507857D02*
X156890001Y-101450714D01*
X156832858Y-101393571D01*
X156775715Y-101279286D01*
X156775715Y-100936429D01*
X156832858Y-100822143D01*
X156890001Y-100765000D01*
X157004287Y-100707857D01*
X157175715Y-100707857D01*
X157290001Y-100765000D01*
X157347144Y-100822143D01*
X157404287Y-100936429D01*
X157404287Y-101279286D01*
X157347144Y-101393571D01*
X157290001Y-101450714D01*
X157175715Y-101507857D01*
X157004287Y-101507857D01*
X157918572Y-101507857D02*
X157918572Y-100707857D01*
X157918572Y-100936429D02*
X157975715Y-100822143D01*
X158032858Y-100765000D01*
X158147144Y-100707857D01*
X158261429Y-100707857D01*
X159175715Y-101507857D02*
X159175715Y-100879286D01*
X159118572Y-100765000D01*
X159004286Y-100707857D01*
X158775715Y-100707857D01*
X158661429Y-100765000D01*
X159175715Y-101450714D02*
X159061429Y-101507857D01*
X158775715Y-101507857D01*
X158661429Y-101450714D01*
X158604286Y-101336429D01*
X158604286Y-101222143D01*
X158661429Y-101107857D01*
X158775715Y-101050714D01*
X159061429Y-101050714D01*
X159175715Y-100993571D01*
X160204286Y-101450714D02*
X160090000Y-101507857D01*
X159861429Y-101507857D01*
X159747143Y-101450714D01*
X159690000Y-101336429D01*
X159690000Y-100879286D01*
X159747143Y-100765000D01*
X159861429Y-100707857D01*
X160090000Y-100707857D01*
X160204286Y-100765000D01*
X160261429Y-100879286D01*
X160261429Y-100993571D01*
X159690000Y-101107857D01*
X160775714Y-101507857D02*
X160775714Y-100707857D01*
X160775714Y-100822143D02*
X160832857Y-100765000D01*
X160947143Y-100707857D01*
X161118571Y-100707857D01*
X161232857Y-100765000D01*
X161290000Y-100879286D01*
X161290000Y-101507857D01*
X161290000Y-100879286D02*
X161347143Y-100765000D01*
X161461429Y-100707857D01*
X161632857Y-100707857D01*
X161747143Y-100765000D01*
X161804286Y-100879286D01*
X161804286Y-101507857D01*
X162547143Y-101507857D02*
X162432857Y-101450714D01*
X162375714Y-101393571D01*
X162318571Y-101279286D01*
X162318571Y-100936429D01*
X162375714Y-100822143D01*
X162432857Y-100765000D01*
X162547143Y-100707857D01*
X162718571Y-100707857D01*
X162832857Y-100765000D01*
X162890000Y-100822143D01*
X162947143Y-100936429D01*
X162947143Y-101279286D01*
X162890000Y-101393571D01*
X162832857Y-101450714D01*
X162718571Y-101507857D01*
X162547143Y-101507857D01*
X163461428Y-100707857D02*
X163461428Y-101507857D01*
X163461428Y-100822143D02*
X163518571Y-100765000D01*
X163632857Y-100707857D01*
X163804285Y-100707857D01*
X163918571Y-100765000D01*
X163975714Y-100879286D01*
X163975714Y-101507857D01*
X165347143Y-100707857D02*
X165632857Y-101507857D01*
X165918571Y-100707857D01*
X166318571Y-100422143D02*
X166375714Y-100365000D01*
X166490000Y-100307857D01*
X166775714Y-100307857D01*
X166890000Y-100365000D01*
X166947143Y-100422143D01*
X167004286Y-100536429D01*
X167004286Y-100650714D01*
X166947143Y-100822143D01*
X166261429Y-101507857D01*
X167004286Y-101507857D01*
M02*
