%FSLAX46Y46*%
G04 Gerber Fmt 4.6, Leading zero omitted, Abs format (unit mm)*
G04 Created by KiCad (PCBNEW (2014-10-30 BZR 5240)-product) date jeu. 06 nov. 2014 00:10:11 CET*
%MOMM*%
G01*
G04 APERTURE LIST*
%ADD10C,0.100000*%
%ADD11C,0.300000*%
G04 APERTURE END LIST*
D10*
D11*
X166947142Y-101507857D02*
X166947142Y-100307857D01*
X166661427Y-100307857D01*
X166489999Y-100365000D01*
X166375713Y-100479286D01*
X166318570Y-100593571D01*
X166261427Y-100822143D01*
X166261427Y-100993571D01*
X166318570Y-101222143D01*
X166375713Y-101336429D01*
X166489999Y-101450714D01*
X166661427Y-101507857D01*
X166947142Y-101507857D01*
X165575713Y-101507857D02*
X165689999Y-101450714D01*
X165747142Y-101393571D01*
X165804285Y-101279286D01*
X165804285Y-100936429D01*
X165747142Y-100822143D01*
X165689999Y-100765000D01*
X165575713Y-100707857D01*
X165404285Y-100707857D01*
X165289999Y-100765000D01*
X165232856Y-100822143D01*
X165175713Y-100936429D01*
X165175713Y-101279286D01*
X165232856Y-101393571D01*
X165289999Y-101450714D01*
X165404285Y-101507857D01*
X165575713Y-101507857D01*
X164661428Y-101507857D02*
X164661428Y-100707857D01*
X164661428Y-100936429D02*
X164604285Y-100822143D01*
X164547142Y-100765000D01*
X164432856Y-100707857D01*
X164318571Y-100707857D01*
X163404285Y-101507857D02*
X163404285Y-100879286D01*
X163461428Y-100765000D01*
X163575714Y-100707857D01*
X163804285Y-100707857D01*
X163918571Y-100765000D01*
X163404285Y-101450714D02*
X163518571Y-101507857D01*
X163804285Y-101507857D01*
X163918571Y-101450714D01*
X163975714Y-101336429D01*
X163975714Y-101222143D01*
X163918571Y-101107857D01*
X163804285Y-101050714D01*
X163518571Y-101050714D01*
X163404285Y-100993571D01*
X162375714Y-101450714D02*
X162490000Y-101507857D01*
X162718571Y-101507857D01*
X162832857Y-101450714D01*
X162890000Y-101336429D01*
X162890000Y-100879286D01*
X162832857Y-100765000D01*
X162718571Y-100707857D01*
X162490000Y-100707857D01*
X162375714Y-100765000D01*
X162318571Y-100879286D01*
X162318571Y-100993571D01*
X162890000Y-101107857D01*
X161804286Y-101507857D02*
X161804286Y-100707857D01*
X161804286Y-100822143D02*
X161747143Y-100765000D01*
X161632857Y-100707857D01*
X161461429Y-100707857D01*
X161347143Y-100765000D01*
X161290000Y-100879286D01*
X161290000Y-101507857D01*
X161290000Y-100879286D02*
X161232857Y-100765000D01*
X161118571Y-100707857D01*
X160947143Y-100707857D01*
X160832857Y-100765000D01*
X160775714Y-100879286D01*
X160775714Y-101507857D01*
X160032857Y-101507857D02*
X160147143Y-101450714D01*
X160204286Y-101393571D01*
X160261429Y-101279286D01*
X160261429Y-100936429D01*
X160204286Y-100822143D01*
X160147143Y-100765000D01*
X160032857Y-100707857D01*
X159861429Y-100707857D01*
X159747143Y-100765000D01*
X159690000Y-100822143D01*
X159632857Y-100936429D01*
X159632857Y-101279286D01*
X159690000Y-101393571D01*
X159747143Y-101450714D01*
X159861429Y-101507857D01*
X160032857Y-101507857D01*
X159118572Y-100707857D02*
X159118572Y-101507857D01*
X159118572Y-100822143D02*
X159061429Y-100765000D01*
X158947143Y-100707857D01*
X158775715Y-100707857D01*
X158661429Y-100765000D01*
X158604286Y-100879286D01*
X158604286Y-101507857D01*
X157232857Y-100707857D02*
X156947143Y-101507857D01*
X156661429Y-100707857D01*
X156261429Y-100422143D02*
X156204286Y-100365000D01*
X156090000Y-100307857D01*
X155804286Y-100307857D01*
X155690000Y-100365000D01*
X155632857Y-100422143D01*
X155575714Y-100536429D01*
X155575714Y-100650714D01*
X155632857Y-100822143D01*
X156318571Y-101507857D01*
X155575714Y-101507857D01*
M02*
